Lineal-Black.ufo
<glyph name="exclam" format="2">
  <advance width="290"/>
  <unicode hex="0021"/>
  <note>
exclam
</note>
  <outline>
    <contour>
      <point x="104" y="257" type="line"/>
      <point x="186" y="257" type="line"/>
      <point x="250" y="706" type="line"/>
      <point x="40" y="706" type="line"/>
    </contour>
    <component base="period" xOffset="16" identifier="CD735539"/>
  </outline>
</glyph>
<glyph name="numbersign" format="2">
  <advance width="642"/>
  <unicode hex="0023"/>
  <note>
numbersign
</note>
  <outline>
    <contour>
      <point x="324" y="-1" type="line"/>
      <point x="457" y="-1" type="line"/>
      <point x="518" y="706" type="line"/>
      <point x="385" y="706" type="line"/>
    </contour>
    <contour>
      <point x="20" y="167" type="line"/>
      <point x="622" y="167" type="line"/>
      <point x="622" y="300" type="line"/>
      <point x="20" y="300" type="line"/>
    </contour>
    <contour>
      <point x="115" y="-1" type="line"/>
      <point x="248" y="-1" type="line"/>
      <point x="309" y="706" type="line"/>
      <point x="176" y="706" type="line"/>
    </contour>
    <contour>
      <point x="20" y="420" type="line"/>
      <point x="622" y="420" type="line"/>
      <point x="622" y="553" type="line"/>
      <point x="20" y="553" type="line"/>
    </contour>
  </outline>
</glyph>
<glyph name="dollar" format="2">
  <advance width="456"/>
  <unicode hex="0024"/>
  <note>
dollar
</note>
  <outline>
    <contour>
      <point x="161" y="0" type="line"/>
      <point x="291" y="0" type="line"/>
      <point x="291" y="351" type="line"/>
      <point x="291" y="706" type="line"/>
      <point x="161" y="706" type="line"/>
      <point x="161" y="351" type="line"/>
    </contour>
    <component base="s" yOffset="82"/>
  </outline>
</glyph>
<glyph name="percent" format="2">
  <advance width="773"/>
  <unicode hex="0025"/>
  <note>
percent
</note>
  <outline>
    <contour>
      <point x="63" y="-20" type="line"/>
      <point x="69" y="-20" type="line"/>
      <point x="712" y="525" type="line"/>
      <point x="712" y="726" type="line"/>
      <point x="705" y="726" type="line"/>
      <point x="63" y="182" type="line"/>
    </contour>
    <contour>
      <point x="592" y="-13" type="curve" smooth="yes"/>
      <point x="692" y="-13"/>
      <point x="766" y="63"/>
      <point x="766" y="162" type="curve" smooth="yes"/>
      <point x="766" y="259"/>
      <point x="692" y="335"/>
      <point x="592" y="335" type="curve" smooth="yes"/>
      <point x="495" y="335"/>
      <point x="418" y="259"/>
      <point x="418" y="162" type="curve" smooth="yes"/>
      <point x="418" y="63"/>
      <point x="495" y="-13"/>
    </contour>
    <contour>
      <point x="592" y="109" type="curve" smooth="yes"/>
      <point x="562" y="109"/>
      <point x="540" y="131"/>
      <point x="540" y="162" type="curve" smooth="yes"/>
      <point x="540" y="191"/>
      <point x="562" y="214"/>
      <point x="592" y="214" type="curve" smooth="yes"/>
      <point x="622" y="214"/>
      <point x="646" y="191"/>
      <point x="646" y="162" type="curve" smooth="yes"/>
      <point x="646" y="131"/>
      <point x="622" y="109"/>
    </contour>
    <contour>
      <point x="181" y="371" type="curve" smooth="yes"/>
      <point x="281" y="371"/>
      <point x="355" y="448"/>
      <point x="355" y="546" type="curve" smooth="yes"/>
      <point x="355" y="643"/>
      <point x="281" y="719"/>
      <point x="181" y="719" type="curve" smooth="yes"/>
      <point x="84" y="719"/>
      <point x="7" y="643"/>
      <point x="7" y="546" type="curve" smooth="yes"/>
      <point x="7" y="448"/>
      <point x="84" y="371"/>
    </contour>
    <contour>
      <point x="181" y="493" type="curve" smooth="yes"/>
      <point x="151" y="493"/>
      <point x="129" y="516"/>
      <point x="129" y="546" type="curve" smooth="yes"/>
      <point x="129" y="576"/>
      <point x="151" y="598"/>
      <point x="181" y="598" type="curve" smooth="yes"/>
      <point x="211" y="598"/>
      <point x="235" y="576"/>
      <point x="235" y="546" type="curve" smooth="yes"/>
      <point x="235" y="516"/>
      <point x="211" y="493"/>
    </contour>
  </outline>
</glyph>
<glyph name="ampersand" format="2">
  <advance width="523"/>
  <unicode hex="0026"/>
  <note>
ampersand
</note>
  <outline>
    <contour>
      <point x="270" y="0" type="curve" smooth="yes"/>
      <point x="493" y="0" type="line"/>
      <point x="493" y="169" type="line"/>
      <point x="269" y="169" type="line" smooth="yes"/>
      <point x="224" y="169"/>
      <point x="191" y="202"/>
      <point x="191" y="248" type="curve" smooth="yes"/>
      <point x="191" y="290"/>
      <point x="231" y="322"/>
      <point x="269" y="322" type="curve"/>
      <point x="250" y="494" type="line"/>
      <point x="120" y="483"/>
      <point x="20" y="382"/>
      <point x="20" y="248" type="curve" smooth="yes"/>
      <point x="20" y="105"/>
      <point x="130" y="0"/>
    </contour>
    <contour>
      <point x="292" y="268" type="line"/>
      <point x="468" y="268" type="line"/>
      <point x="318" y="546" type="line"/>
      <point x="493" y="546" type="line"/>
      <point x="493" y="706" type="line"/>
      <point x="73" y="706" type="line"/>
      <point x="70" y="702" type="line"/>
    </contour>
  </outline>
</glyph>
<glyph name="quotesingle" format="2">
  <advance width="222"/>
  <unicode hex="0027"/>
  <note>
quotesingle
</note>
  <guideline x="198" y="730" angle="0"/>
  <outline>
    <contour>
      <point x="57" y="411" type="line"/>
      <point x="165" y="411" type="line"/>
      <point x="182" y="706" type="line"/>
      <point x="40" y="706" type="line"/>
    </contour>
  </outline>
</glyph>
<glyph name="parenleft" format="2">
  <advance width="366"/>
  <unicode hex="0028"/>
  <note>
parenleft
</note>
  <outline>
    <contour>
      <point x="198" y="-91" type="curve"/>
      <point x="336" y="-8" type="line"/>
      <point x="259" y="85"/>
      <point x="222" y="211"/>
      <point x="222" y="350" type="curve" smooth="yes"/>
      <point x="222" y="488"/>
      <point x="259" y="614"/>
      <point x="336" y="708" type="curve"/>
      <point x="198" y="790" type="line"/>
      <point x="124" y="703"/>
      <point x="50" y="527"/>
      <point x="50" y="350" type="curve" smooth="yes"/>
      <point x="50" y="173"/>
      <point x="124" y="-3"/>
    </contour>
  </outline>
</glyph>
<glyph name="asterisk" format="2">
  <advance width="384"/>
  <unicode hex="002A"/>
  <note>
asterisk
</note>
  <outline>
    <contour>
      <point x="143" y="365" type="line"/>
      <point x="241" y="365" type="line"/>
      <point x="241" y="450" type="line"/>
      <point x="317" y="408" type="line"/>
      <point x="364" y="494" type="line"/>
      <point x="292" y="536" type="line"/>
      <point x="364" y="578" type="line"/>
      <point x="317" y="664" type="line"/>
      <point x="241" y="623" type="line"/>
      <point x="241" y="706" type="line"/>
      <point x="143" y="706" type="line"/>
      <point x="143" y="623" type="line"/>
      <point x="68" y="664" type="line"/>
      <point x="20" y="578" type="line"/>
      <point x="93" y="536" type="line"/>
      <point x="20" y="494" type="line"/>
      <point x="68" y="408" type="line"/>
      <point x="143" y="450" type="line"/>
    </contour>
  </outline>
</glyph>
<glyph name="plus" format="2">
  <advance width="456"/>
  <unicode hex="002B"/>
  <note>
plus
</note>
  <outline>
    <contour>
      <point x="163" y="135" type="line"/>
      <point x="296" y="135" type="line"/>
      <point x="296" y="267" type="line"/>
      <point x="426" y="267" type="line"/>
      <point x="426" y="400" type="line"/>
      <point x="296" y="400" type="line"/>
      <point x="296" y="531" type="line"/>
      <point x="163" y="531" type="line"/>
      <point x="163" y="400" type="line"/>
      <point x="30" y="400" type="line"/>
      <point x="30" y="267" type="line"/>
      <point x="163" y="267" type="line"/>
    </contour>
  </outline>
</glyph>
<glyph name="comma" format="2">
  <advance width="212"/>
  <unicode hex="002C"/>
  <note>
comma
</note>
  <outline>
    <contour>
      <point x="30" y="-142" type="line"/>
      <point x="128" y="-142" type="line"/>
      <point x="182" y="159" type="line"/>
      <point x="40" y="159" type="line"/>
    </contour>
  </outline>
</glyph>
<glyph name="hyphen" format="2">
  <advance width="412"/>
  <unicode hex="002D"/>
  <note>
hyphen
</note>
  <outline>
    <contour>
      <point x="30" y="270" type="line"/>
      <point x="382" y="270" type="line"/>
      <point x="382" y="436" type="line"/>
      <point x="30" y="436" type="line"/>
    </contour>
  </outline>
</glyph>
<glyph name="slash" format="2">
  <advance width="413"/>
  <unicode hex="002F"/>
  <note>
slash
</note>
  <outline>
    <contour>
      <point x="10" y="0" type="line"/>
      <point x="168" y="0" type="line"/>
      <point x="403" y="706" type="line"/>
      <point x="245" y="706" type="line"/>
    </contour>
  </outline>
</glyph>
<glyph name="one" format="2">
  <advance width="360"/>
  <unicode hex="0031"/>
  <note>
one
</note>
  <outline>
    <contour>
      <point x="160" y="0" type="line"/>
      <point x="320" y="0" type="line"/>
      <point x="320" y="725" type="line"/>
      <point x="319" y="726" type="line"/>
      <point x="30" y="602" type="line"/>
      <point x="30" y="449" type="line"/>
      <point x="160" y="497" type="line"/>
    </contour>
  </outline>
</glyph>
<glyph name="two" format="2">
  <advance width="534"/>
  <unicode hex="0032"/>
  <note>
two
</note>
  <outline>
    <contour>
      <point x="20" y="0" type="line"/>
      <point x="482" y="0" type="line"/>
      <point x="482" y="166" type="line"/>
      <point x="252" y="166" type="line"/>
      <point x="268" y="244" type="line"/>
      <point x="269" y="244" type="line" smooth="yes"/>
      <point x="402" y="244"/>
      <point x="504" y="347"/>
      <point x="504" y="481" type="curve" smooth="yes"/>
      <point x="504" y="615"/>
      <point x="402" y="717"/>
      <point x="269" y="717" type="curve" smooth="yes"/>
      <point x="133" y="717"/>
      <point x="31" y="615"/>
      <point x="31" y="481" type="curve" smooth="yes"/>
      <point x="31" y="478" type="line"/>
      <point x="198" y="478" type="line"/>
      <point x="198" y="481" type="line" smooth="yes"/>
      <point x="198" y="522"/>
      <point x="229" y="550"/>
      <point x="269" y="550" type="curve" smooth="yes"/>
      <point x="308" y="550"/>
      <point x="338" y="522"/>
      <point x="338" y="481" type="curve" smooth="yes"/>
      <point x="338" y="441"/>
      <point x="308" y="412"/>
      <point x="269" y="412" type="curve" smooth="yes"/>
      <point x="158" y="412" type="line"/>
    </contour>
  </outline>
</glyph>
<glyph name="three" format="2">
  <advance width="513"/>
  <unicode hex="0033"/>
  <note>
three
</note>
  <outline>
    <contour>
      <point x="258" y="-10" type="curve" smooth="yes"/>
      <point x="391" y="-10"/>
      <point x="493" y="92"/>
      <point x="493" y="226" type="curve" smooth="yes"/>
      <point x="493" y="360"/>
      <point x="391" y="463"/>
      <point x="258" y="463" type="curve" smooth="yes"/>
      <point x="104" y="463" type="line"/>
      <point x="104" y="295" type="line"/>
      <point x="258" y="295" type="line" smooth="yes"/>
      <point x="297" y="295"/>
      <point x="327" y="266"/>
      <point x="327" y="226" type="curve" smooth="yes"/>
      <point x="327" y="185"/>
      <point x="297" y="157"/>
      <point x="258" y="157" type="curve" smooth="yes"/>
      <point x="218" y="157"/>
      <point x="187" y="185"/>
      <point x="187" y="226" type="curve" smooth="yes"/>
      <point x="187" y="229" type="line"/>
      <point x="20" y="229" type="line"/>
      <point x="20" y="226" type="line" smooth="yes"/>
      <point x="20" y="92"/>
      <point x="122" y="-10"/>
    </contour>
    <contour>
      <point x="361" y="399" type="line"/>
      <point x="488" y="705" type="line"/>
      <point x="487" y="706" type="line"/>
      <point x="36" y="706" type="line"/>
      <point x="36" y="546" type="line"/>
      <point x="246" y="546" type="line"/>
      <point x="197" y="407" type="line"/>
    </contour>
  </outline>
</glyph>
<glyph name="four" format="2">
  <advance width="516"/>
  <unicode hex="0034"/>
  <note>
four
</note>
  <outline>
    <contour>
      <point x="316" y="0" type="line"/>
      <point x="476" y="0" type="line"/>
      <point x="476" y="513" type="line"/>
      <point x="316" y="513" type="line"/>
      <point x="316" y="276" type="line"/>
      <point x="217" y="276" type="line"/>
      <point x="283" y="706" type="line"/>
      <point x="123" y="706" type="line"/>
      <point x="20" y="118" type="line"/>
      <point x="316" y="118" type="line"/>
    </contour>
  </outline>
</glyph>
<glyph name="five" format="2">
  <advance width="514"/>
  <unicode hex="0035"/>
  <note>
five
</note>
  <outline>
    <contour>
      <point x="259" y="-10" type="curve" smooth="yes"/>
      <point x="392" y="-10"/>
      <point x="494" y="92"/>
      <point x="494" y="226" type="curve" smooth="yes"/>
      <point x="494" y="360"/>
      <point x="392" y="463"/>
      <point x="259" y="463" type="curve" smooth="yes"/>
      <point x="248" y="463" type="line"/>
      <point x="236" y="540" type="line"/>
      <point x="444" y="540" type="line"/>
      <point x="444" y="706" type="line"/>
      <point x="31" y="706" type="line"/>
      <point x="108" y="295" type="line"/>
      <point x="259" y="295" type="line" smooth="yes"/>
      <point x="298" y="295"/>
      <point x="328" y="266"/>
      <point x="328" y="226" type="curve" smooth="yes"/>
      <point x="328" y="185"/>
      <point x="298" y="157"/>
      <point x="259" y="157" type="curve" smooth="yes"/>
      <point x="219" y="157"/>
      <point x="188" y="185"/>
      <point x="188" y="226" type="curve" smooth="yes"/>
      <point x="188" y="229" type="line"/>
      <point x="21" y="229" type="line"/>
      <point x="21" y="226" type="line" smooth="yes"/>
      <point x="21" y="92"/>
      <point x="123" y="-10"/>
    </contour>
  </outline>
</glyph>
<glyph name="six" format="2">
  <advance width="564"/>
  <unicode hex="0036"/>
  <note>
six
</note>
  <outline>
    <contour>
      <point x="282" y="-10" type="curve" smooth="yes"/>
      <point x="428" y="-10"/>
      <point x="539" y="101"/>
      <point x="539" y="247" type="curve" smooth="yes"/>
      <point x="539" y="372"/>
      <point x="459" y="481"/>
      <point x="316" y="501" type="curve"/>
      <point x="457" y="706" type="line"/>
      <point x="262" y="706" type="line"/>
      <point x="79" y="414" type="line" smooth="yes"/>
      <point x="49" y="367"/>
      <point x="25" y="308"/>
      <point x="25" y="247" type="curve" smooth="yes"/>
      <point x="25" y="101"/>
      <point x="136" y="-10"/>
    </contour>
    <contour>
      <point x="282" y="150" type="curve" smooth="yes"/>
      <point x="227" y="150"/>
      <point x="185" y="192"/>
      <point x="185" y="247" type="curve" smooth="yes"/>
      <point x="185" y="301"/>
      <point x="227" y="343"/>
      <point x="282" y="343" type="curve" smooth="yes"/>
      <point x="337" y="343"/>
      <point x="379" y="301"/>
      <point x="379" y="247" type="curve" smooth="yes"/>
      <point x="379" y="192"/>
      <point x="337" y="150"/>
    </contour>
  </outline>
</glyph>
<glyph name="seven" format="2">
  <advance width="479"/>
  <unicode hex="0037"/>
  <note>
seven
</note>
  <outline>
    <contour>
      <point x="71" y="0" type="line"/>
      <point x="237" y="0" type="line"/>
      <point x="469" y="706" type="line"/>
      <point x="30" y="706" type="line"/>
      <point x="30" y="545" type="line"/>
      <point x="253" y="545" type="line"/>
    </contour>
  </outline>
</glyph>
<glyph name="eight" format="2">
  <advance width="531"/>
  <unicode hex="0038"/>
  <note>
eight
</note>
  <outline>
    <contour>
      <point x="266" y="-17" type="curve" smooth="yes"/>
      <point x="390" y="-17"/>
      <point x="491" y="84"/>
      <point x="491" y="209" type="curve" smooth="yes"/>
      <point x="491" y="264"/>
      <point x="471" y="314"/>
      <point x="439" y="353" type="curve"/>
      <point x="471" y="392"/>
      <point x="491" y="443"/>
      <point x="491" y="498" type="curve" smooth="yes"/>
      <point x="491" y="622"/>
      <point x="390" y="723"/>
      <point x="266" y="723" type="curve" smooth="yes"/>
      <point x="141" y="723"/>
      <point x="40" y="622"/>
      <point x="40" y="498" type="curve" smooth="yes"/>
      <point x="40" y="443"/>
      <point x="60" y="392"/>
      <point x="92" y="353" type="curve"/>
      <point x="60" y="314"/>
      <point x="40" y="264"/>
      <point x="40" y="209" type="curve" smooth="yes"/>
      <point x="40" y="84"/>
      <point x="141" y="-17"/>
    </contour>
    <contour>
      <point x="266" y="145" type="curve" smooth="yes"/>
      <point x="230" y="145"/>
      <point x="202" y="173"/>
      <point x="202" y="209" type="curve" smooth="yes"/>
      <point x="202" y="244"/>
      <point x="230" y="272"/>
      <point x="266" y="272" type="curve" smooth="yes"/>
      <point x="301" y="272"/>
      <point x="329" y="244"/>
      <point x="329" y="209" type="curve" smooth="yes"/>
      <point x="329" y="173"/>
      <point x="301" y="145"/>
    </contour>
    <contour>
      <point x="266" y="434" type="curve" smooth="yes"/>
      <point x="230" y="434"/>
      <point x="202" y="462"/>
      <point x="202" y="498" type="curve" smooth="yes"/>
      <point x="202" y="533"/>
      <point x="230" y="561"/>
      <point x="266" y="561" type="curve" smooth="yes"/>
      <point x="301" y="561"/>
      <point x="329" y="533"/>
      <point x="329" y="498" type="curve" smooth="yes"/>
      <point x="329" y="462"/>
      <point x="301" y="434"/>
    </contour>
  </outline>
</glyph>
<glyph name="nine" format="2">
  <advance width="564"/>
  <unicode hex="0039"/>
  <note>
nine
</note>
  <outline>
    <contour>
      <point x="107" y="0" type="line"/>
      <point x="302" y="0" type="line"/>
      <point x="485" y="292" type="line" smooth="yes"/>
      <point x="515" y="339"/>
      <point x="539" y="398"/>
      <point x="539" y="459" type="curve" smooth="yes"/>
      <point x="539" y="605"/>
      <point x="428" y="716"/>
      <point x="282" y="716" type="curve" smooth="yes"/>
      <point x="136" y="716"/>
      <point x="25" y="605"/>
      <point x="25" y="459" type="curve" smooth="yes"/>
      <point x="25" y="334"/>
      <point x="105" y="225"/>
      <point x="248" y="205" type="curve"/>
    </contour>
    <contour>
      <point x="282" y="363" type="curve" smooth="yes"/>
      <point x="227" y="363"/>
      <point x="185" y="405"/>
      <point x="185" y="459" type="curve" smooth="yes"/>
      <point x="185" y="514"/>
      <point x="227" y="556"/>
      <point x="282" y="556" type="curve" smooth="yes"/>
      <point x="337" y="556"/>
      <point x="379" y="514"/>
      <point x="379" y="459" type="curve" smooth="yes"/>
      <point x="379" y="405"/>
      <point x="337" y="363"/>
    </contour>
  </outline>
</glyph>
<glyph name="semicolon" format="2">
  <advance width="258"/>
  <unicode hex="003B"/>
  <note>
semicolon
</note>
  <outline>
    <contour>
      <point x="54" y="-156" type="line"/>
      <point x="172" y="-156" type="line"/>
      <point x="206" y="159" type="line"/>
      <point x="54" y="159" type="line"/>
    </contour>
    <contour>
      <point x="129" y="317" type="curve" smooth="yes"/>
      <point x="184" y="317"/>
      <point x="228" y="361"/>
      <point x="228" y="416" type="curve" smooth="yes"/>
      <point x="228" y="470"/>
      <point x="184" y="513"/>
      <point x="129" y="513" type="curve" smooth="yes"/>
      <point x="75" y="513"/>
      <point x="30" y="470"/>
      <point x="30" y="416" type="curve" smooth="yes"/>
      <point x="30" y="361"/>
      <point x="75" y="317"/>
    </contour>
  </outline>
</glyph>
<glyph name="less" format="2">
  <advance width="410"/>
  <unicode hex="003C"/>
  <note>
less
</note>
  <outline>
    <contour>
      <point x="380" y="65" type="line"/>
      <point x="380" y="219" type="line"/>
      <point x="132" y="323" type="line"/>
      <point x="380" y="428" type="line"/>
      <point x="380" y="582" type="line"/>
      <point x="20" y="426" type="line"/>
      <point x="20" y="220" type="line"/>
    </contour>
  </outline>
</glyph>
<glyph name="equal" format="2">
  <advance width="412"/>
  <unicode hex="003D"/>
  <note>
equal
</note>
  <outline>
    <contour>
      <point x="30" y="382" type="line"/>
      <point x="382" y="382" type="line"/>
      <point x="382" y="515" type="line"/>
      <point x="30" y="515" type="line"/>
    </contour>
    <contour>
      <point x="30" y="141" type="line"/>
      <point x="382" y="141" type="line"/>
      <point x="382" y="274" type="line"/>
      <point x="30" y="274" type="line"/>
    </contour>
  </outline>
</glyph>
<glyph name="question" format="2">
  <advance width="474"/>
  <unicode hex="003F"/>
  <note>
question
</note>
  <outline>
    <contour>
      <point x="176" y="295" type="line"/>
      <point x="215" y="293" type="line" smooth="yes"/>
      <point x="347" y="286"/>
      <point x="454" y="349"/>
      <point x="454" y="490" type="curve" smooth="yes"/>
      <point x="454" y="613"/>
      <point x="358" y="706"/>
      <point x="236" y="706" type="curve" smooth="yes"/>
      <point x="121" y="706"/>
      <point x="20" y="625"/>
      <point x="20" y="513" type="curve" smooth="yes"/>
      <point x="20" y="476" type="line"/>
      <point x="186" y="476" type="line"/>
      <point x="186" y="490" type="line" smooth="yes"/>
      <point x="186" y="519"/>
      <point x="208" y="541"/>
      <point x="236" y="541" type="curve" smooth="yes"/>
      <point x="266" y="541"/>
      <point x="288" y="519"/>
      <point x="288" y="490" type="curve" smooth="yes"/>
      <point x="288" y="462"/>
      <point x="266" y="439"/>
      <point x="236" y="439" type="curve" smooth="yes"/>
      <point x="137" y="439" type="line"/>
    </contour>
    <component base="period" xOffset="82" identifier="4D741ED9"/>
    <contour>
      <point x="159" y="246" type="line"/>
      <point x="264" y="246" type="line"/>
      <point x="306" y="425" type="line"/>
      <point x="137" y="439" type="line"/>
    </contour>
  </outline>
</glyph>
<glyph name="at" format="2">
  <advance width="969"/>
  <unicode hex="0040"/>
  <note>
at
</note>
  <outline>
    <contour>
      <point x="485" y="-94" type="curve" smooth="yes"/>
      <point x="492" y="-94"/>
      <point x="487" y="-95"/>
      <point x="495" y="-93" type="curve"/>
      <point x="490" y="66" type="line"/>
      <point x="484" y="65"/>
      <point x="490" y="66"/>
      <point x="485" y="66" type="curve" smooth="yes"/>
      <point x="332" y="66"/>
      <point x="216" y="183"/>
      <point x="216" y="336" type="curve" smooth="yes"/>
      <point x="216" y="488"/>
      <point x="332" y="604"/>
      <point x="485" y="604" type="curve" smooth="yes"/>
      <point x="637" y="604"/>
      <point x="753" y="488"/>
      <point x="753" y="336" type="curve"/>
      <point x="814" y="156" type="line"/>
      <point x="814" y="0" type="line"/>
      <point x="903" y="0" type="line"/>
      <point x="914" y="0" type="line"/>
      <point x="914" y="336" type="line"/>
      <point x="914" y="579"/>
      <point x="728" y="765"/>
      <point x="485" y="765" type="curve" smooth="yes"/>
      <point x="240" y="765"/>
      <point x="55" y="579"/>
      <point x="55" y="336" type="curve" smooth="yes"/>
      <point x="55" y="92"/>
      <point x="240" y="-94"/>
    </contour>
    <contour>
      <point x="645" y="1" type="curve" smooth="yes"/>
      <point x="792" y="1"/>
      <point x="910" y="120"/>
      <point x="910" y="266" type="curve" smooth="yes"/>
      <point x="910" y="410"/>
      <point x="792" y="528"/>
      <point x="645" y="528" type="curve" smooth="yes"/>
      <point x="500" y="528"/>
      <point x="382" y="410"/>
      <point x="382" y="266" type="curve" smooth="yes"/>
      <point x="382" y="120"/>
      <point x="500" y="1"/>
    </contour>
    <contour>
      <point x="645" y="164" type="curve" smooth="yes"/>
      <point x="588" y="164"/>
      <point x="545" y="209"/>
      <point x="545" y="264" type="curve" smooth="yes"/>
      <point x="545" y="320"/>
      <point x="589" y="365"/>
      <point x="645" y="365" type="curve" smooth="yes"/>
      <point x="701" y="365"/>
      <point x="748" y="320"/>
      <point x="748" y="264" type="curve" smooth="yes"/>
      <point x="748" y="209"/>
      <point x="701" y="164"/>
    </contour>
  </outline>
</glyph>
<glyph name="A" format="2">
  <advance width="690"/>
  <unicode hex="0041"/>
  <note>
A
</note>
  <anchor x="345" y="0" name="bottom"/>
  <anchor x="680" y="0" name="ogonek"/>
  <anchor x="345" y="706" name="top"/>
  <outline>
    <contour>
      <point x="10" y="0" type="line"/>
      <point x="181" y="0" type="line"/>
      <point x="345" y="399" type="line"/>
      <point x="511" y="0" type="line"/>
      <point x="680" y="0" type="line"/>
      <point x="346" y="749" type="line"/>
      <point x="344" y="749" type="line"/>
    </contour>
    <contour>
      <point x="203" y="97" type="line"/>
      <point x="488" y="97" type="line"/>
      <point x="438" y="247" type="line"/>
      <point x="253" y="247" type="line"/>
    </contour>
  </outline>
</glyph>
<glyph name="B" format="2">
  <advance width="456"/>
  <unicode hex="0042"/>
  <note>
B
</note>
  <anchor x="123" y="706" name="top"/>
  <outline>
    <contour>
      <point x="200" y="0" type="line"/>
      <point x="239" y="0" type="line" smooth="yes"/>
      <point x="351" y="0"/>
      <point x="436" y="86"/>
      <point x="436" y="199" type="curve" smooth="yes"/>
      <point x="436" y="263"/>
      <point x="407" y="319"/>
      <point x="352" y="354" type="curve"/>
      <point x="407" y="391"/>
      <point x="436" y="446"/>
      <point x="436" y="510" type="curve" smooth="yes"/>
      <point x="436" y="622"/>
      <point x="351" y="706"/>
      <point x="239" y="706" type="curve" smooth="yes"/>
      <point x="200" y="706" type="line"/>
      <point x="200" y="553" type="line"/>
      <point x="217" y="553" type="line" smooth="yes"/>
      <point x="252" y="553"/>
      <point x="278" y="527"/>
      <point x="278" y="492" type="curve" smooth="yes"/>
      <point x="278" y="455"/>
      <point x="252" y="426"/>
      <point x="217" y="426" type="curve" smooth="yes"/>
      <point x="200" y="426" type="line"/>
      <point x="200" y="280" type="line"/>
      <point x="217" y="280" type="line" smooth="yes"/>
      <point x="252" y="280"/>
      <point x="278" y="255"/>
      <point x="278" y="218" type="curve" smooth="yes"/>
      <point x="278" y="184"/>
      <point x="252" y="156"/>
      <point x="217" y="156" type="curve" smooth="yes"/>
      <point x="200" y="156" type="line"/>
    </contour>
    <contour>
      <point x="40" y="0" type="line"/>
      <point x="200" y="0" type="line"/>
      <point x="200" y="706" type="line"/>
      <point x="40" y="706" type="line"/>
    </contour>
  </outline>
</glyph>
<glyph name="C" format="2">
  <advance width="423"/>
  <unicode hex="0043"/>
  <note>
C
</note>
  <anchor x="250" y="48" name="bottom"/>
  <anchor x="309" y="706" name="top"/>
  <outline>
    <contour>
      <point x="393" y="-14" type="curve"/>
      <point x="393" y="148" type="line"/>
      <point x="276" y="148"/>
      <point x="187" y="237"/>
      <point x="187" y="353" type="curve" smooth="yes"/>
      <point x="187" y="469"/>
      <point x="276" y="558"/>
      <point x="393" y="558" type="curve"/>
      <point x="393" y="720" type="line"/>
      <point x="184" y="720"/>
      <point x="25" y="561"/>
      <point x="25" y="353" type="curve" smooth="yes"/>
      <point x="25" y="145"/>
      <point x="184" y="-14"/>
    </contour>
  </outline>
</glyph>
<glyph name="D" format="2">
  <advance width="582"/>
  <unicode hex="0044"/>
  <note>
D
</note>
  <anchor x="206" y="0" name="bottom"/>
  <anchor x="291" y="353" name="center"/>
  <anchor x="206" y="707" name="top"/>
  <outline>
    <contour>
      <point x="40" y="0" type="line"/>
      <point x="206" y="0" type="line" smooth="yes"/>
      <point x="405" y="0"/>
      <point x="557" y="154"/>
      <point x="557" y="354" type="curve" smooth="yes"/>
      <point x="557" y="553"/>
      <point x="405" y="707"/>
      <point x="206" y="707" type="curve" smooth="yes"/>
      <point x="40" y="707" type="line"/>
    </contour>
    <contour>
      <point x="206" y="167" type="curve"/>
      <point x="206" y="540" type="line"/>
      <point x="310" y="539"/>
      <point x="390" y="460"/>
      <point x="390" y="354" type="curve" smooth="yes"/>
      <point x="390" y="249"/>
      <point x="310" y="168"/>
    </contour>
  </outline>
</glyph>
<glyph name="E" format="2">
  <advance width="360"/>
  <unicode hex="0045"/>
  <note>
E
</note>
  <guideline x="185" y="706" angle="90"/>
  <guideline x="265" y="446" angle="180"/>
  <anchor x="185" y="0" name="bottom"/>
  <anchor x="330" y="0" name="ogonek"/>
  <anchor x="185" y="706" name="top"/>
  <anchor x="20" y="706" name="topleft"/>
  <outline>
    <contour>
      <point x="40" y="0" type="line"/>
      <point x="330" y="0" type="line"/>
      <point x="330" y="160" type="line"/>
      <point x="200" y="160" type="line"/>
      <point x="200" y="286" type="line"/>
      <point x="330" y="286" type="line"/>
      <point x="330" y="446" type="line"/>
      <point x="200" y="446" type="line"/>
      <point x="200" y="546" type="line"/>
      <point x="330" y="546" type="line"/>
      <point x="330" y="706" type="line"/>
      <point x="40" y="706" type="line"/>
    </contour>
  </outline>
</glyph>
<glyph name="F" format="2">
  <advance width="380"/>
  <unicode hex="0046"/>
  <note>
F
</note>
  <outline>
    <contour>
      <point x="40" y="0" type="line"/>
      <point x="200" y="0" type="line"/>
      <point x="200" y="290" type="line"/>
      <point x="360" y="290" type="line"/>
      <point x="360" y="449" type="line"/>
      <point x="200" y="449" type="line"/>
      <point x="200" y="546" type="line"/>
      <point x="360" y="546" type="line"/>
      <point x="360" y="706" type="line"/>
      <point x="40" y="706" type="line"/>
    </contour>
  </outline>
</glyph>
<glyph name="G" format="2">
  <advance width="477"/>
  <unicode hex="0047"/>
  <note>
G
</note>
  <guideline x="437" y="198" angle="90"/>
  <anchor x="379" y="0" name="bottom"/>
  <anchor x="315" y="706" name="top"/>
  <outline>
    <contour>
      <point x="379" y="0" type="curve"/>
      <point x="379" y="160" type="line"/>
      <point x="270" y="160"/>
      <point x="187" y="245"/>
      <point x="187" y="353" type="curve" smooth="yes"/>
      <point x="187" y="484"/>
      <point x="299" y="579"/>
      <point x="437" y="554" type="curve"/>
      <point x="437" y="718" type="line"/>
      <point x="207" y="741"/>
      <point x="25" y="576"/>
      <point x="25" y="353" type="curve" smooth="yes"/>
      <point x="25" y="153"/>
      <point x="177" y="0"/>
    </contour>
    <contour>
      <point x="437" y="0" type="curve"/>
      <point x="437" y="395" type="line"/>
      <point x="287" y="395" type="line"/>
      <point x="287" y="11" type="line"/>
      <point x="340" y="-3"/>
      <point x="381" y="-2"/>
    </contour>
  </outline>
</glyph>
<glyph name="H" format="2">
  <advance width="553"/>
  <unicode hex="0048"/>
  <note>
H
</note>
  <anchor x="277" y="0" name="bottom"/>
  <anchor x="277" y="353" name="center"/>
  <anchor x="277" y="706" name="top"/>
  <anchor x="20" y="706" name="topleft"/>
  <outline>
    <contour>
      <point x="40" y="707" type="line"/>
      <point x="40" y="1" type="line"/>
      <point x="206" y="1" type="line"/>
      <point x="206" y="272" type="line"/>
      <point x="346" y="271" type="line"/>
      <point x="346" y="0" type="line"/>
      <point x="513" y="0" type="line"/>
      <point x="513" y="706" type="line"/>
      <point x="346" y="706" type="line"/>
      <point x="346" y="437" type="line"/>
      <point x="206" y="438" type="line"/>
      <point x="206" y="707" type="line"/>
    </contour>
  </outline>
</glyph>
<glyph name="I" format="2">
  <advance width="240"/>
  <unicode hex="0049"/>
  <note>
I
</note>
  <anchor x="120" y="0" name="bottom"/>
  <anchor x="200" y="0" name="ogonek"/>
  <anchor x="123" y="706" name="top"/>
  <anchor x="20" y="706" name="topleft"/>
  <outline>
    <contour>
      <point x="40" y="0" type="line"/>
      <point x="200" y="0" type="line"/>
      <point x="200" y="706" type="line"/>
      <point x="40" y="706" type="line"/>
    </contour>
  </outline>
</glyph>
<glyph name="J" format="2">
  <advance width="504"/>
  <unicode hex="004A"/>
  <note>
J
</note>
  <anchor x="249" y="0" name="bottom"/>
  <anchor x="388" y="706" name="top"/>
  <outline>
    <contour>
      <point x="251" y="-10" type="curve" smooth="yes"/>
      <point x="372" y="-10"/>
      <point x="468" y="86"/>
      <point x="468" y="207" type="curve" smooth="yes"/>
      <point x="468" y="706" type="line"/>
      <point x="310" y="706" type="line"/>
      <point x="310" y="207" type="line" smooth="yes"/>
      <point x="310" y="175"/>
      <point x="283" y="148"/>
      <point x="251" y="148" type="curve" smooth="yes"/>
      <point x="219" y="148"/>
      <point x="193" y="174"/>
      <point x="193" y="207" type="curve" smooth="yes"/>
      <point x="193" y="276" type="line"/>
      <point x="35" y="276" type="line"/>
      <point x="35" y="207" type="line" smooth="yes"/>
      <point x="35" y="86"/>
      <point x="131" y="-10"/>
    </contour>
  </outline>
</glyph>
<glyph name="K" format="2">
  <advance width="711"/>
  <unicode hex="004B"/>
  <note>
K
</note>
  <guideline x="30" y="711" angle="0"/>
  <anchor x="376" y="0" name="bottom"/>
  <anchor x="376" y="706" name="top"/>
  <outline>
    <contour>
      <point x="679" y="-23" type="line"/>
      <point x="681" y="-21" type="line"/>
      <point x="681" y="161" type="line"/>
      <point x="100" y="409" type="line"/>
      <point x="100" y="238" type="line"/>
    </contour>
    <contour>
      <point x="40" y="0" type="line"/>
      <point x="200" y="0" type="line"/>
      <point x="200" y="706" type="line"/>
      <point x="40" y="706" type="line"/>
    </contour>
    <contour>
      <point x="100" y="328" type="line"/>
      <point x="681" y="548" type="line"/>
      <point x="681" y="729" type="line"/>
      <point x="679" y="730" type="line"/>
      <point x="100" y="499" type="line"/>
    </contour>
  </outline>
</glyph>
<glyph name="L" format="2">
  <advance width="350"/>
  <unicode hex="004C"/>
  <note>
L
</note>
  <anchor x="180" y="0" name="bottom"/>
  <anchor x="180" y="353" name="center"/>
  <anchor x="120" y="706" name="top"/>
  <anchor x="224" y="706" name="topright"/>
  <outline>
    <contour>
      <point x="40" y="0" type="line"/>
      <point x="330" y="0" type="line"/>
      <point x="330" y="160" type="line"/>
      <point x="200" y="160" type="line"/>
      <point x="200" y="706" type="line"/>
      <point x="40" y="706" type="line"/>
    </contour>
  </outline>
</glyph>
<glyph name="M" format="2">
  <advance width="818"/>
  <unicode hex="004D"/>
  <note>
M
</note>
  <anchor x="409" y="0" name="bottom"/>
  <anchor x="409" y="706" name="top"/>
  <outline>
    <contour>
      <point x="411" y="-20" type="line"/>
      <point x="414" y="-20" type="line"/>
      <point x="622" y="434" type="line"/>
      <point x="622" y="0" type="line"/>
      <point x="778" y="0" type="line"/>
      <point x="778" y="707" type="line"/>
      <point x="599" y="707" type="line"/>
      <point x="413" y="324" type="line"/>
      <point x="229" y="707" type="line"/>
      <point x="40" y="707" type="line"/>
      <point x="40" y="0" type="line"/>
      <point x="196" y="0" type="line"/>
      <point x="196" y="415" type="line"/>
    </contour>
  </outline>
</glyph>
<glyph name="N" format="2">
  <advance width="857"/>
  <unicode hex="004E"/>
  <note>
N
</note>
  <guideline x="449" y="483" angle="250.6825"/>
  <anchor x="320" y="0" name="bottom"/>
  <anchor x="552" y="706" name="top"/>
  <outline>
    <contour>
      <point x="10" y="0" type="line"/>
      <point x="176" y="0" type="line"/>
      <point x="289" y="329" type="line"/>
      <point x="457" y="0" type="line"/>
      <point x="614" y="0" type="line"/>
      <point x="847" y="706" type="line"/>
      <point x="694" y="706" type="line"/>
      <point x="531" y="241" type="line"/>
      <point x="267" y="769" type="line"/>
      <point x="265" y="769" type="line"/>
    </contour>
  </outline>
</glyph>
<glyph name="O" format="2">
  <advance width="785"/>
  <unicode hex="004F"/>
  <note>
O
</note>
  <anchor x="393" y="0" name="bottom"/>
  <anchor x="393" y="353" name="center"/>
  <anchor x="723" y="10" name="ogonek"/>
  <anchor x="393" y="706" name="top"/>
  <anchor x="-1" y="706" name="topleft"/>
  <anchor x="786" y="706" name="topright"/>
  <outline>
    <contour>
      <point x="393" y="-14" type="curve" smooth="yes"/>
      <point x="601" y="-14"/>
      <point x="760" y="145"/>
      <point x="760" y="353" type="curve" smooth="yes"/>
      <point x="760" y="561"/>
      <point x="601" y="720"/>
      <point x="393" y="720" type="curve" smooth="yes"/>
      <point x="184" y="720"/>
      <point x="25" y="561"/>
      <point x="25" y="353" type="curve" smooth="yes"/>
      <point x="25" y="145"/>
      <point x="184" y="-14"/>
    </contour>
    <contour>
      <point x="393" y="148" type="curve" smooth="yes"/>
      <point x="276" y="148"/>
      <point x="187" y="237"/>
      <point x="187" y="353" type="curve" smooth="yes"/>
      <point x="187" y="469"/>
      <point x="276" y="558"/>
      <point x="393" y="558" type="curve" smooth="yes"/>
      <point x="509" y="558"/>
      <point x="598" y="469"/>
      <point x="598" y="353" type="curve" smooth="yes"/>
      <point x="598" y="237"/>
      <point x="509" y="148"/>
    </contour>
  </outline>
</glyph>
<glyph name="P" format="2">
  <advance width="473"/>
  <unicode hex="0050"/>
  <note>
P
</note>
  <anchor x="123" y="706" name="top"/>
  <outline>
    <contour>
      <point x="174" y="255" type="line"/>
      <point x="240" y="255" type="line" smooth="yes"/>
      <point x="365" y="255"/>
      <point x="463" y="354"/>
      <point x="463" y="481" type="curve" smooth="yes"/>
      <point x="463" y="607"/>
      <point x="365" y="706"/>
      <point x="240" y="706" type="curve" smooth="yes"/>
      <point x="177" y="706" type="line"/>
      <point x="177" y="541" type="line"/>
      <point x="240" y="541" type="line" smooth="yes"/>
      <point x="279" y="541"/>
      <point x="299" y="511"/>
      <point x="299" y="481" type="curve" smooth="yes"/>
      <point x="299" y="451"/>
      <point x="279" y="421"/>
      <point x="240" y="421" type="curve" smooth="yes"/>
      <point x="174" y="421" type="line"/>
    </contour>
    <contour>
      <point x="40" y="0" type="line"/>
      <point x="200" y="0" type="line"/>
      <point x="200" y="706" type="line"/>
      <point x="40" y="706" type="line"/>
    </contour>
  </outline>
</glyph>
<glyph name="Q" format="2">
  <advance width="795"/>
  <unicode hex="0051"/>
  <note>
Q
</note>
  <guideline x="493" y="-20" angle="0"/>
  <outline>
    <contour>
      <point x="731" y="-40" type="line"/>
      <point x="734" y="-38" type="line"/>
      <point x="734" y="144" type="line"/>
      <point x="411" y="408" type="line"/>
      <point x="317" y="292" type="line"/>
    </contour>
    <component base="O" identifier="272B3A94"/>
  </outline>
</glyph>
<glyph name="R" format="2">
  <advance width="483"/>
  <unicode hex="0052"/>
  <note>
R
</note>
  <anchor x="242" y="0" name="bottom"/>
  <anchor x="222" y="706" name="top"/>
  <outline>
    <contour>
      <point x="40" y="0" type="line"/>
      <point x="200" y="0" type="line"/>
      <point x="200" y="706" type="line"/>
      <point x="40" y="706" type="line"/>
    </contour>
    <contour>
      <point x="289" y="-1" type="line"/>
      <point x="455" y="-1" type="line"/>
      <point x="331" y="343" type="line"/>
      <point x="189" y="309" type="line"/>
    </contour>
    <contour>
      <point x="174" y="265" type="line"/>
      <point x="240" y="265" type="line" smooth="yes"/>
      <point x="365" y="265"/>
      <point x="463" y="354"/>
      <point x="463" y="481" type="curve" smooth="yes"/>
      <point x="463" y="607"/>
      <point x="365" y="706"/>
      <point x="240" y="706" type="curve" smooth="yes"/>
      <point x="177" y="706" type="line"/>
      <point x="177" y="541" type="line"/>
      <point x="240" y="541" type="line" smooth="yes"/>
      <point x="279" y="541"/>
      <point x="299" y="511"/>
      <point x="299" y="481" type="curve" smooth="yes"/>
      <point x="299" y="451"/>
      <point x="279" y="421"/>
      <point x="240" y="421" type="curve" smooth="yes"/>
      <point x="174" y="421" type="line"/>
    </contour>
  </outline>
</glyph>
<glyph name="S" format="2">
  <advance width="508"/>
  <unicode hex="0053"/>
  <note>
S
</note>
  <anchor x="254" y="0" name="bottom"/>
  <anchor x="254" y="706" name="top"/>
  <outline>
    <contour>
      <point x="254" y="-19" type="curve" smooth="yes"/>
      <point x="380" y="-19"/>
      <point x="479" y="80"/>
      <point x="479" y="206" type="curve" smooth="yes"/>
      <point x="479" y="337"/>
      <point x="380" y="434"/>
      <point x="254" y="434" type="curve" smooth="yes"/>
      <point x="222" y="434"/>
      <point x="194" y="463"/>
      <point x="194" y="500" type="curve" smooth="yes"/>
      <point x="194" y="533"/>
      <point x="222" y="560"/>
      <point x="254" y="560" type="curve" smooth="yes"/>
      <point x="291" y="560"/>
      <point x="321" y="533"/>
      <point x="321" y="500" type="curve" smooth="yes"/>
      <point x="321" y="491" type="line"/>
      <point x="483" y="491" type="line"/>
      <point x="483" y="501" type="line" smooth="yes"/>
      <point x="483" y="628"/>
      <point x="386" y="724"/>
      <point x="253" y="724" type="curve" smooth="yes"/>
      <point x="127" y="724"/>
      <point x="30" y="628"/>
      <point x="30" y="501" type="curve" smooth="yes"/>
      <point x="30" y="369"/>
      <point x="127" y="272"/>
      <point x="253" y="272" type="curve" smooth="yes"/>
      <point x="288" y="272"/>
      <point x="315" y="245"/>
      <point x="315" y="207" type="curve" smooth="yes"/>
      <point x="315" y="172"/>
      <point x="288" y="145"/>
      <point x="253" y="145" type="curve" smooth="yes"/>
      <point x="217" y="145"/>
      <point x="188" y="172"/>
      <point x="188" y="208" type="curve" smooth="yes"/>
      <point x="188" y="215" type="line"/>
      <point x="25" y="215" type="line"/>
      <point x="25" y="207" type="line" smooth="yes"/>
      <point x="25" y="80"/>
      <point x="120" y="-19"/>
    </contour>
  </outline>
</glyph>
<glyph name="T" format="2">
  <advance width="456"/>
  <unicode hex="0054"/>
  <note>
T
</note>
  <anchor x="228" y="0" name="bottom"/>
  <anchor x="228" y="353" name="center"/>
  <anchor x="228" y="706" name="top"/>
  <outline>
    <contour>
      <point x="148" y="0" type="line"/>
      <point x="308" y="0" type="line"/>
      <point x="308" y="706" type="line"/>
      <point x="148" y="706" type="line"/>
    </contour>
    <contour>
      <point x="40" y="546" type="line"/>
      <point x="416" y="546" type="line"/>
      <point x="416" y="706" type="line"/>
      <point x="40" y="706" type="line"/>
    </contour>
  </outline>
</glyph>
<glyph name="U" format="2">
  <advance width="565"/>
  <unicode hex="0055"/>
  <note>
U
</note>
  <anchor x="283" y="0" name="bottom"/>
  <anchor x="420" y="40" name="ogonek"/>
  <anchor x="284" y="706" name="top"/>
  <anchor x="549" y="706" name="topright"/>
  <outline>
    <contour>
      <point x="284" y="0" type="curve" smooth="yes"/>
      <point x="422" y="0"/>
      <point x="529" y="106"/>
      <point x="529" y="243" type="curve" smooth="yes"/>
      <point x="529" y="706" type="line"/>
      <point x="361" y="706" type="line"/>
      <point x="361" y="246" type="line" smooth="yes"/>
      <point x="361" y="204"/>
      <point x="325" y="168"/>
      <point x="284" y="168" type="curve" smooth="yes"/>
      <point x="239" y="168"/>
      <point x="204" y="204"/>
      <point x="204" y="246" type="curve" smooth="yes"/>
      <point x="204" y="706" type="line"/>
      <point x="36" y="706" type="line"/>
      <point x="36" y="243" type="line" smooth="yes"/>
      <point x="36" y="106"/>
      <point x="142" y="0"/>
    </contour>
  </outline>
</glyph>
<glyph name="V" format="2">
  <advance width="630"/>
  <unicode hex="0056"/>
  <note>
V
</note>
  <guideline x="460" y="-69" angle="0"/>
  <outline>
    <contour>
      <point x="316" y="-60" type="line"/>
      <point x="620" y="706" type="line"/>
      <point x="451" y="706" type="line"/>
      <point x="315" y="359" type="line"/>
      <point x="181" y="706" type="line"/>
      <point x="10" y="706" type="line"/>
    </contour>
  </outline>
</glyph>
<glyph name="W" format="2">
  <advance width="972"/>
  <unicode hex="0057"/>
  <note>
W
</note>
  <anchor x="486" y="706" name="top"/>
  <outline>
    <contour>
      <point x="286" y="-40" type="line"/>
      <point x="289" y="-40" type="line"/>
      <point x="486" y="362" type="line"/>
      <point x="683" y="-40" type="line"/>
      <point x="686" y="-40" type="line"/>
      <point x="962" y="706" type="line"/>
      <point x="794" y="706" type="line"/>
      <point x="652" y="348" type="line"/>
      <point x="492" y="677" type="line"/>
      <point x="480" y="677" type="line"/>
      <point x="320" y="348" type="line"/>
      <point x="178" y="706" type="line"/>
      <point x="10" y="706" type="line"/>
    </contour>
  </outline>
</glyph>
<glyph name="X" format="2">
  <advance width="779"/>
  <unicode hex="0058"/>
  <note>
X
</note>
  <guideline x="85" y="-4" angle="0"/>
  <outline>
    <contour>
      <point x="32" y="-21" type="line"/>
      <point x="749" y="513" type="line"/>
      <point x="749" y="727" type="line"/>
      <point x="747" y="728" type="line"/>
      <point x="30" y="194" type="line"/>
      <point x="30" y="-20" type="line"/>
    </contour>
    <contour>
      <point x="747" y="-21" type="line"/>
      <point x="749" y="-20" type="line"/>
      <point x="749" y="194" type="line"/>
      <point x="32" y="728" type="line"/>
      <point x="30" y="727" type="line"/>
      <point x="30" y="513" type="line"/>
    </contour>
  </outline>
</glyph>
<glyph name="Y" format="2">
  <advance width="469"/>
  <unicode hex="0059"/>
  <note>
Y
</note>
  <anchor x="235" y="706" name="top"/>
  <outline>
    <contour>
      <point x="152" y="0" type="line"/>
      <point x="319" y="0" type="line"/>
      <point x="319" y="341" type="line"/>
      <point x="459" y="706" type="line"/>
      <point x="290" y="706" type="line"/>
      <point x="235" y="521" type="line"/>
      <point x="180" y="706" type="line"/>
      <point x="10" y="706" type="line"/>
      <point x="152" y="341" type="line"/>
    </contour>
  </outline>
</glyph>
<glyph name="Z" format="2">
  <advance width="459"/>
  <unicode hex="005A"/>
  <note>
Z
</note>
  <anchor x="230" y="0" name="bottom"/>
  <anchor x="230" y="353" name="center"/>
  <anchor x="230" y="706" name="top"/>
  <outline>
    <contour>
      <point x="30" y="0" type="line"/>
      <point x="426" y="0" type="line"/>
      <point x="426" y="166" type="line"/>
      <point x="260" y="166" type="line"/>
      <point x="429" y="706" type="line"/>
      <point x="30" y="706" type="line"/>
      <point x="30" y="540" type="line"/>
      <point x="196" y="540" type="line"/>
      <point x="30" y="3" type="line"/>
    </contour>
  </outline>
</glyph>
<glyph name="bracketleft" format="2">
  <advance width="319"/>
  <unicode hex="005B"/>
  <note>
bracketleft
</note>
  <outline>
    <contour>
      <point x="40" y="-40" type="line"/>
      <point x="279" y="-40" type="line"/>
      <point x="279" y="120" type="line"/>
      <point x="200" y="120" type="line"/>
      <point x="200" y="586" type="line"/>
      <point x="279" y="586" type="line"/>
      <point x="279" y="746" type="line"/>
      <point x="40" y="746" type="line"/>
    </contour>
  </outline>
</glyph>
<glyph name="asciicircum" format="2">
  <advance width="537"/>
  <unicode hex="005E"/>
  <outline>
    <contour>
      <point x="10" y="246" type="line"/>
      <point x="164" y="246" type="line"/>
      <point x="268" y="494" type="line"/>
      <point x="373" y="246" type="line"/>
      <point x="527" y="246" type="line"/>
      <point x="371" y="606" type="line"/>
      <point x="165" y="606" type="line"/>
    </contour>
  </outline>
</glyph>
<glyph name="a" format="2">
  <advance width="589"/>
  <unicode hex="0061"/>
  <anchor x="291" y="0" name="bottom"/>
  <anchor x="548" y="0" name="ogonek"/>
  <anchor x="302" y="512" name="top"/>
  <outline>
    <contour>
      <point x="285" y="-8" type="curve" smooth="yes"/>
      <point x="431" y="-8"/>
      <point x="549" y="110"/>
      <point x="549" y="257" type="curve" smooth="yes"/>
      <point x="549" y="403"/>
      <point x="431" y="521"/>
      <point x="285" y="521" type="curve" smooth="yes"/>
      <point x="139" y="521"/>
      <point x="20" y="403"/>
      <point x="20" y="257" type="curve" smooth="yes"/>
      <point x="20" y="110"/>
      <point x="139" y="-8"/>
    </contour>
    <contour>
      <point x="285" y="152" type="curve" smooth="yes"/>
      <point x="227" y="152"/>
      <point x="180" y="199"/>
      <point x="180" y="257" type="curve" smooth="yes"/>
      <point x="180" y="314"/>
      <point x="227" y="361"/>
      <point x="285" y="361" type="curve" smooth="yes"/>
      <point x="342" y="361"/>
      <point x="389" y="314"/>
      <point x="389" y="257" type="curve" smooth="yes"/>
      <point x="389" y="199"/>
      <point x="342" y="152"/>
    </contour>
    <contour>
      <point x="448" y="0" type="line"/>
      <point x="548" y="0" type="line"/>
      <point x="548" y="513" type="line"/>
      <point x="448" y="513" type="line"/>
    </contour>
  </outline>
</glyph>
<glyph name="b" format="2">
  <advance width="589"/>
  <unicode hex="0062"/>
  <anchor x="301" y="513" name="top"/>
  <outline>
    <contour>
      <point x="305" y="-8" type="curve" smooth="yes"/>
      <point x="451" y="-8"/>
      <point x="569" y="110"/>
      <point x="569" y="257" type="curve" smooth="yes"/>
      <point x="569" y="403"/>
      <point x="451" y="521"/>
      <point x="305" y="521" type="curve" smooth="yes"/>
      <point x="159" y="521"/>
      <point x="40" y="403"/>
      <point x="40" y="257" type="curve" smooth="yes"/>
      <point x="40" y="110"/>
      <point x="159" y="-8"/>
    </contour>
    <contour>
      <point x="40" y="0" type="line"/>
      <point x="140" y="0" type="line"/>
      <point x="140" y="315" type="line"/>
      <point x="200" y="315" type="line"/>
      <point x="200" y="706" type="line"/>
      <point x="40" y="706" type="line"/>
    </contour>
    <contour>
      <point x="305" y="152" type="curve" smooth="yes"/>
      <point x="247" y="152"/>
      <point x="200" y="199"/>
      <point x="200" y="257" type="curve" smooth="yes"/>
      <point x="200" y="314"/>
      <point x="247" y="361"/>
      <point x="305" y="361" type="curve" smooth="yes"/>
      <point x="362" y="361"/>
      <point x="409" y="314"/>
      <point x="409" y="257" type="curve" smooth="yes"/>
      <point x="409" y="199"/>
      <point x="362" y="152"/>
    </contour>
  </outline>
</glyph>
<glyph name="c" format="2">
  <advance width="567"/>
  <unicode hex="0063"/>
  <anchor x="284" y="0" name="bottom"/>
  <anchor x="284" y="513" name="top"/>
  <outline>
    <contour>
      <point x="285" y="-7" type="curve" smooth="yes"/>
      <point x="418" y="-7"/>
      <point x="527" y="90"/>
      <point x="547" y="217" type="curve"/>
      <point x="381" y="217" type="line"/>
      <point x="366" y="179"/>
      <point x="328" y="153"/>
      <point x="285" y="153" type="curve" smooth="yes"/>
      <point x="227" y="153"/>
      <point x="180" y="200"/>
      <point x="180" y="257" type="curve" smooth="yes"/>
      <point x="180" y="314"/>
      <point x="227" y="361"/>
      <point x="285" y="361" type="curve" smooth="yes"/>
      <point x="328" y="361"/>
      <point x="366" y="335"/>
      <point x="381" y="297" type="curve"/>
      <point x="547" y="297" type="line"/>
      <point x="527" y="424"/>
      <point x="418" y="521"/>
      <point x="285" y="521" type="curve" smooth="yes"/>
      <point x="139" y="521"/>
      <point x="20" y="403"/>
      <point x="20" y="257" type="curve" smooth="yes"/>
      <point x="20" y="111"/>
      <point x="139" y="-7"/>
    </contour>
  </outline>
</glyph>
<glyph name="e" format="2">
  <advance width="569"/>
  <unicode hex="0065"/>
  <anchor x="285" y="0" name="bottom"/>
  <anchor x="381" y="10" name="ogonek"/>
  <anchor x="285" y="513" name="top"/>
  <outline>
    <contour>
      <point x="285" y="-8" type="curve" smooth="yes"/>
      <point x="403" y="-8"/>
      <point x="503" y="69"/>
      <point x="537" y="177" type="curve"/>
      <point x="358" y="177" type="line"/>
      <point x="339" y="159"/>
      <point x="314" y="148"/>
      <point x="285" y="148" type="curve" smooth="yes"/>
      <point x="225" y="148"/>
      <point x="176" y="197"/>
      <point x="176" y="257" type="curve" smooth="yes"/>
      <point x="176" y="316"/>
      <point x="225" y="365"/>
      <point x="285" y="365" type="curve" smooth="yes"/>
      <point x="337" y="365"/>
      <point x="379" y="330"/>
      <point x="389" y="282" type="curve"/>
      <point x="424" y="310" type="line"/>
      <point x="103" y="310" type="line"/>
      <point x="103" y="219" type="line"/>
      <point x="546" y="219" type="line"/>
      <point x="570" y="365"/>
      <point x="455" y="521"/>
      <point x="285" y="521" type="curve" smooth="yes"/>
      <point x="139" y="521"/>
      <point x="20" y="403"/>
      <point x="20" y="257" type="curve" smooth="yes"/>
      <point x="20" y="110"/>
      <point x="139" y="-8"/>
    </contour>
  </outline>
</glyph>
<glyph name="f" format="2">
  <advance width="400"/>
  <unicode hex="0066"/>
  <outline>
    <contour>
      <point x="121" y="-1" type="line"/>
      <point x="281" y="0" type="line"/>
      <point x="281" y="510" type="line" smooth="yes"/>
      <point x="281" y="549"/>
      <point x="292" y="580"/>
      <point x="361" y="580" type="curve" smooth="yes"/>
      <point x="375" y="580" type="line"/>
      <point x="375" y="740" type="line"/>
      <point x="361" y="740" type="line" smooth="yes"/>
      <point x="206" y="740"/>
      <point x="121" y="641"/>
      <point x="121" y="517" type="curve" smooth="yes"/>
    </contour>
    <contour>
      <point x="30" y="353" type="line"/>
      <point x="375" y="353" type="line"/>
      <point x="375" y="513" type="line"/>
      <point x="30" y="513" type="line"/>
    </contour>
  </outline>
</glyph>
<glyph name="g" format="2">
  <advance width="554"/>
  <unicode hex="0067"/>
  <anchor x="265" y="-200" name="bottom"/>
  <anchor x="267" y="513" name="top"/>
  <outline>
    <contour>
      <point x="267" y="69" type="curve" smooth="yes"/>
      <point x="375" y="69"/>
      <point x="489" y="165"/>
      <point x="489" y="291" type="curve" smooth="yes"/>
      <point x="489" y="416"/>
      <point x="393" y="513"/>
      <point x="267" y="513" type="curve" smooth="yes"/>
      <point x="141" y="513"/>
      <point x="45" y="416"/>
      <point x="45" y="291" type="curve" smooth="yes"/>
      <point x="45" y="165"/>
      <point x="141" y="69"/>
    </contour>
    <contour>
      <point x="265" y="-200" type="curve" smooth="yes"/>
      <point x="410" y="-200"/>
      <point x="521" y="-89"/>
      <point x="521" y="56" type="curve"/>
      <point x="361" y="56" type="line"/>
      <point x="361" y="-1"/>
      <point x="322" y="-40"/>
      <point x="265" y="-40" type="curve" smooth="yes"/>
      <point x="209" y="-40"/>
      <point x="170" y="-1"/>
      <point x="170" y="56" type="curve"/>
      <point x="10" y="56" type="line"/>
      <point x="10" y="-89"/>
      <point x="121" y="-200"/>
    </contour>
    <contour>
      <point x="504" y="-39" type="line"/>
      <point x="524" y="15"/>
      <point x="523" y="67"/>
      <point x="519" y="88" type="curve"/>
      <point x="255" y="206" type="line"/>
      <point x="196" y="80" type="line"/>
    </contour>
    <contour>
      <point x="263" y="225" type="curve" smooth="yes"/>
      <point x="225" y="225"/>
      <point x="198" y="254"/>
      <point x="198" y="290" type="curve" smooth="yes"/>
      <point x="198" y="326"/>
      <point x="225" y="355"/>
      <point x="263" y="355" type="curve" smooth="yes"/>
      <point x="299" y="355"/>
      <point x="329" y="326"/>
      <point x="329" y="290" type="curve" smooth="yes"/>
      <point x="329" y="254"/>
      <point x="299" y="225"/>
    </contour>
    <contour>
      <point x="267" y="432" type="line"/>
      <point x="544" y="432" type="line"/>
      <point x="544" y="513" type="line"/>
      <point x="267" y="513" type="line"/>
    </contour>
  </outline>
</glyph>
<glyph name="h" format="2">
  <advance width="549"/>
  <unicode hex="0068"/>
  <anchor x="275" y="0" name="bottom"/>
  <anchor x="275" y="257" name="center"/>
  <anchor x="125" y="706" name="top"/>
  <outline>
    <contour>
      <point x="41" y="-1" type="line"/>
      <point x="201" y="-1" type="line"/>
      <point x="201" y="288" type="line" smooth="yes"/>
      <point x="201" y="330"/>
      <point x="233" y="362"/>
      <point x="275" y="362" type="curve" smooth="yes"/>
      <point x="316" y="362"/>
      <point x="349" y="329"/>
      <point x="349" y="288" type="curve" smooth="yes"/>
      <point x="349" y="-1" type="line"/>
      <point x="509" y="-1" type="line"/>
      <point x="509" y="288" type="line" smooth="yes"/>
      <point x="509" y="418"/>
      <point x="405" y="522"/>
      <point x="275" y="522" type="curve" smooth="yes"/>
      <point x="145" y="522"/>
      <point x="41" y="418"/>
      <point x="41" y="288" type="curve" smooth="yes"/>
    </contour>
    <contour>
      <point x="40" y="0" type="line"/>
      <point x="200" y="0" type="line"/>
      <point x="200" y="706" type="line"/>
      <point x="40" y="706" type="line"/>
    </contour>
  </outline>
</glyph>
<glyph name="k" format="2">
  <advance width="499"/>
  <unicode hex="006B"/>
  <note>
k
</note>
  <guideline x="489" y="-20" angle="0"/>
  <anchor x="258" y="0" name="bottom"/>
  <anchor x="120" y="706" name="top"/>
  <outline>
    <contour>
      <point x="467" y="-23" type="line"/>
      <point x="469" y="-22" type="line"/>
      <point x="469" y="155" type="line"/>
      <point x="201" y="257" type="line"/>
      <point x="469" y="358" type="line"/>
      <point x="469" y="535" type="line"/>
      <point x="467" y="536" type="line"/>
      <point x="40" y="366" type="line"/>
      <point x="40" y="147" type="line"/>
    </contour>
    <contour>
      <point x="40" y="0" type="line"/>
      <point x="200" y="0" type="line"/>
      <point x="200" y="706" type="line"/>
      <point x="40" y="706" type="line"/>
    </contour>
  </outline>
</glyph>
<glyph name="l" format="2">
  <advance width="240"/>
  <unicode hex="006C"/>
  <anchor x="120" y="0" name="bottom"/>
  <anchor x="120" y="400" name="center"/>
  <anchor x="120" y="706" name="top"/>
  <anchor x="220" y="706" name="topright"/>
  <outline>
    <contour>
      <point x="40" y="0" type="line"/>
      <point x="200" y="0" type="line"/>
      <point x="200" y="706" type="line"/>
      <point x="40" y="706" type="line"/>
    </contour>
  </outline>
</glyph>
<glyph name="m" format="2">
  <advance width="848"/>
  <unicode hex="006D"/>
  <outline>
    <contour>
      <point x="423" y="-40" type="line"/>
      <point x="425" y="-40" type="line"/>
      <point x="619" y="278" type="line"/>
      <point x="661" y="1" type="line"/>
      <point x="818" y="1" type="line"/>
      <point x="738" y="513" type="line"/>
      <point x="563" y="513" type="line"/>
      <point x="424" y="263" type="line"/>
      <point x="284" y="513" type="line"/>
      <point x="109" y="513" type="line"/>
      <point x="30" y="1" type="line"/>
      <point x="186" y="1" type="line"/>
      <point x="230" y="278" type="line"/>
    </contour>
  </outline>
</glyph>
<glyph name="n" format="2">
  <advance width="567"/>
  <unicode hex="006E"/>
  <note>
n
</note>
  <anchor x="289" y="0" name="bottom"/>
  <anchor x="299" y="513" name="top"/>
  <outline>
    <contour>
      <point x="40" y="0" type="line"/>
      <point x="190" y="0" type="line"/>
      <point x="190" y="212" type="line"/>
      <point x="442" y="0" type="line"/>
      <point x="527" y="0" type="line"/>
      <point x="527" y="513" type="line"/>
      <point x="377" y="513" type="line"/>
      <point x="377" y="279" type="line"/>
      <point x="42" y="553" type="line"/>
      <point x="40" y="553" type="line"/>
    </contour>
  </outline>
</glyph>
<glyph name="o" format="2">
  <advance width="569"/>
  <unicode hex="006F"/>
  <anchor x="285" y="0" name="bottom"/>
  <anchor x="285" y="257" name="center"/>
  <anchor x="512" y="10" name="ogonek"/>
  <anchor x="285" y="513" name="top"/>
  <anchor x="549" y="513" name="topright"/>
  <outline>
    <contour>
      <point x="285" y="-8" type="curve" smooth="yes"/>
      <point x="431" y="-8"/>
      <point x="549" y="110"/>
      <point x="549" y="257" type="curve" smooth="yes"/>
      <point x="549" y="403"/>
      <point x="431" y="521"/>
      <point x="285" y="521" type="curve" smooth="yes"/>
      <point x="139" y="521"/>
      <point x="20" y="403"/>
      <point x="20" y="257" type="curve" smooth="yes"/>
      <point x="20" y="110"/>
      <point x="139" y="-8"/>
    </contour>
    <contour>
      <point x="285" y="152" type="curve" smooth="yes"/>
      <point x="227" y="152"/>
      <point x="180" y="199"/>
      <point x="180" y="257" type="curve" smooth="yes"/>
      <point x="180" y="314"/>
      <point x="227" y="361"/>
      <point x="285" y="361" type="curve" smooth="yes"/>
      <point x="342" y="361"/>
      <point x="389" y="314"/>
      <point x="389" y="257" type="curve" smooth="yes"/>
      <point x="389" y="199"/>
      <point x="342" y="152"/>
    </contour>
  </outline>
</glyph>
<glyph name="p" format="2">
  <advance width="589"/>
  <unicode hex="0070"/>
  <anchor x="315" y="1" name="bottom"/>
  <outline>
    <contour>
      <point x="305" y="-8" type="curve" smooth="yes"/>
      <point x="451" y="-8"/>
      <point x="569" y="110"/>
      <point x="569" y="257" type="curve" smooth="yes"/>
      <point x="569" y="403"/>
      <point x="451" y="521"/>
      <point x="305" y="521" type="curve" smooth="yes"/>
      <point x="159" y="521"/>
      <point x="40" y="403"/>
      <point x="40" y="257" type="curve" smooth="yes"/>
      <point x="40" y="110"/>
      <point x="159" y="-8"/>
    </contour>
    <contour>
      <point x="40" y="-200" type="line"/>
      <point x="200" y="-200" type="line"/>
      <point x="200" y="198" type="line"/>
      <point x="140" y="198" type="line"/>
      <point x="140" y="513" type="line"/>
      <point x="40" y="513" type="line"/>
    </contour>
    <contour>
      <point x="305" y="152" type="curve" smooth="yes"/>
      <point x="247" y="152"/>
      <point x="200" y="199"/>
      <point x="200" y="257" type="curve" smooth="yes"/>
      <point x="200" y="314"/>
      <point x="247" y="361"/>
      <point x="305" y="361" type="curve" smooth="yes"/>
      <point x="362" y="361"/>
      <point x="409" y="314"/>
      <point x="409" y="257" type="curve" smooth="yes"/>
      <point x="409" y="199"/>
      <point x="362" y="152"/>
    </contour>
  </outline>
</glyph>
<glyph name="r" format="2">
  <advance width="377"/>
  <unicode hex="0072"/>
  <anchor x="123" y="0" name="bottom"/>
  <anchor x="197" y="513" name="top"/>
  <outline>
    <contour>
      <point x="40" y="0" type="line"/>
      <point x="206" y="0" type="line"/>
      <point x="206" y="293" type="line"/>
      <point x="362" y="352" type="line"/>
      <point x="362" y="523" type="line"/>
      <point x="140" y="440" type="line"/>
      <point x="140" y="513" type="line"/>
      <point x="40" y="513" type="line"/>
    </contour>
  </outline>
</glyph>
<glyph name="s" format="2">
  <advance width="456"/>
  <unicode hex="0073"/>
  <anchor x="228" y="0" name="bottom"/>
  <anchor x="228" y="513" name="top"/>
  <outline>
    <contour>
      <point x="225" y="-18" type="curve" smooth="yes"/>
      <point x="359" y="-18"/>
      <point x="436" y="63"/>
      <point x="436" y="154" type="curve" smooth="yes"/>
      <point x="436" y="244"/>
      <point x="360" y="324"/>
      <point x="225" y="330" type="curve" smooth="yes"/>
      <point x="201" y="331"/>
      <point x="187" y="345"/>
      <point x="187" y="365" type="curve" smooth="yes"/>
      <point x="187" y="384"/>
      <point x="204" y="399"/>
      <point x="226" y="399" type="curve" smooth="yes"/>
      <point x="248" y="399"/>
      <point x="265" y="384"/>
      <point x="265" y="365" type="curve" smooth="yes"/>
      <point x="265" y="356" type="line"/>
      <point x="424" y="356" type="line"/>
      <point x="424" y="358" type="line" smooth="yes"/>
      <point x="424" y="460"/>
      <point x="344" y="530"/>
      <point x="225" y="530" type="curve" smooth="yes"/>
      <point x="92" y="530"/>
      <point x="19" y="447"/>
      <point x="19" y="354" type="curve" smooth="yes"/>
      <point x="19" y="265"/>
      <point x="94" y="181"/>
      <point x="225" y="181" type="curve" smooth="yes"/>
      <point x="248" y="181"/>
      <point x="263" y="167"/>
      <point x="263" y="147" type="curve" smooth="yes"/>
      <point x="263" y="129"/>
      <point x="246" y="114"/>
      <point x="225" y="114" type="curve" smooth="yes"/>
      <point x="204" y="114"/>
      <point x="187" y="129"/>
      <point x="187" y="147" type="curve" smooth="yes"/>
      <point x="187" y="154" type="line"/>
      <point x="11" y="154" type="line"/>
      <point x="11" y="153" type="line" smooth="yes"/>
      <point x="11" y="52"/>
      <point x="91" y="-18"/>
    </contour>
  </outline>
</glyph>
<glyph name="t" format="2">
  <advance width="450"/>
  <unicode hex="0074"/>
  <anchor x="221" y="0" name="bottom"/>
  <anchor x="221" y="257" name="center"/>
  <anchor x="221" y="648" name="top"/>
  <anchor x="329" y="737" name="topright"/>
  <outline>
    <contour>
      <point x="141" y="0" type="line"/>
      <point x="301" y="0" type="line"/>
      <point x="301" y="353" type="line"/>
      <point x="430" y="353" type="line"/>
      <point x="430" y="513" type="line"/>
      <point x="301" y="513" type="line"/>
      <point x="301" y="696" type="line"/>
      <point x="300" y="697" type="line"/>
      <point x="141" y="590" type="line"/>
      <point x="141" y="513" type="line"/>
      <point x="30" y="513" type="line"/>
      <point x="30" y="353" type="line"/>
      <point x="141" y="353" type="line"/>
    </contour>
  </outline>
</glyph>
<glyph name="u" format="2">
  <advance width="548"/>
  <unicode hex="0075"/>
  <anchor x="274" y="0" name="bottom"/>
  <anchor x="404" y="41" name="ogonek"/>
  <anchor x="274" y="513" name="top"/>
  <anchor x="532" y="513" name="topright"/>
  <outline>
    <contour>
      <point x="274" y="-10" type="curve" smooth="yes"/>
      <point x="404" y="-10"/>
      <point x="508" y="94"/>
      <point x="508" y="224" type="curve" smooth="yes"/>
      <point x="508" y="513" type="line"/>
      <point x="348" y="513" type="line"/>
      <point x="348" y="224" type="line" smooth="yes"/>
      <point x="348" y="183"/>
      <point x="315" y="150"/>
      <point x="274" y="150" type="curve" smooth="yes"/>
      <point x="232" y="150"/>
      <point x="200" y="182"/>
      <point x="200" y="224" type="curve" smooth="yes"/>
      <point x="200" y="513" type="line"/>
      <point x="40" y="513" type="line"/>
      <point x="40" y="224" type="line" smooth="yes"/>
      <point x="40" y="94"/>
      <point x="144" y="-10"/>
    </contour>
  </outline>
</glyph>
<glyph name="v" format="2">
  <advance width="531"/>
  <unicode hex="0076"/>
  <note>
v
</note>
  <outline>
    <contour>
      <point x="265" y="-40" type="line"/>
      <point x="267" y="-40" type="line"/>
      <point x="531" y="513" type="line"/>
      <point x="351" y="513" type="line"/>
      <point x="266" y="320" type="line"/>
      <point x="180" y="513" type="line"/>
      <point x="0" y="513" type="line"/>
    </contour>
  </outline>
</glyph>
<glyph name="w" format="2">
  <advance width="820"/>
  <unicode hex="0077"/>
  <note>
w
</note>
  <guideline x="-122" y="-47" angle="0"/>
  <anchor x="410" y="0" name="bottom"/>
  <anchor x="410" y="513" name="top"/>
  <outline>
    <contour>
      <point x="261" y="-40" type="line"/>
      <point x="263" y="-40" type="line"/>
      <point x="410" y="227" type="line"/>
      <point x="557" y="-40" type="line"/>
      <point x="559" y="-40" type="line"/>
      <point x="820" y="513" type="line"/>
      <point x="629" y="513" type="line"/>
      <point x="537" y="325" type="line"/>
      <point x="411" y="553" type="line"/>
      <point x="409" y="553" type="line"/>
      <point x="283" y="325" type="line"/>
      <point x="191" y="513" type="line"/>
      <point x="0" y="513" type="line"/>
    </contour>
  </outline>
</glyph>
<glyph name="x" format="2">
  <advance width="505"/>
  <unicode hex="0078"/>
  <note>
x
</note>
  <outline>
    <contour>
      <point x="473" y="-29" type="line"/>
      <point x="31" y="331" type="line"/>
      <point x="31" y="541" type="line"/>
      <point x="33" y="542" type="line"/>
      <point x="475" y="182" type="line"/>
      <point x="475" y="-28" type="line"/>
    </contour>
    <contour>
      <point x="33" y="-29" type="line"/>
      <point x="31" y="-28" type="line"/>
      <point x="31" y="182" type="line"/>
      <point x="473" y="542" type="line"/>
      <point x="475" y="541" type="line"/>
      <point x="475" y="331" type="line"/>
    </contour>
  </outline>
</glyph>
<glyph name="y" format="2">
  <advance width="531"/>
  <unicode hex="0079"/>
  <anchor x="265" y="513" name="top"/>
  <outline>
    <contour>
      <point x="50" y="-125" type="line"/>
      <point x="230" y="-125" type="line"/>
      <point x="531" y="513" type="line"/>
      <point x="351" y="513" type="line"/>
      <point x="266" y="320" type="line"/>
      <point x="180" y="513" type="line"/>
      <point x="0" y="513" type="line"/>
      <point x="182" y="134" type="line"/>
    </contour>
  </outline>
</glyph>
<glyph name="z" format="2">
  <advance width="424"/>
  <unicode hex="007A"/>
  <anchor x="212" y="0" name="bottom"/>
  <anchor x="212" y="257" name="center"/>
  <anchor x="212" y="513" name="top"/>
  <outline>
    <contour>
      <point x="20" y="0" type="line"/>
      <point x="404" y="0" type="line"/>
      <point x="404" y="166" type="line"/>
      <point x="263" y="166" type="line"/>
      <point x="411" y="513" type="line"/>
      <point x="30" y="513" type="line"/>
      <point x="30" y="347" type="line"/>
      <point x="169" y="347" type="line"/>
    </contour>
  </outline>
</glyph>
<glyph name="braceleft" format="2">
  <advance width="389"/>
  <unicode hex="007B"/>
  <outline>
    <contour>
      <point x="271" y="-89" type="curve"/>
      <point x="334" y="34" type="line"/>
      <point x="282" y="55"/>
      <point x="216" y="81"/>
      <point x="274" y="173" type="curve" smooth="yes"/>
      <point x="293" y="202"/>
      <point x="302" y="230"/>
      <point x="301" y="255" type="curve" smooth="yes"/>
      <point x="301" y="300"/>
      <point x="273" y="335"/>
      <point x="217" y="343" type="curve"/>
      <point x="273" y="351"/>
      <point x="300" y="380"/>
      <point x="299" y="421" type="curve" smooth="yes"/>
      <point x="299" y="444"/>
      <point x="291" y="472"/>
      <point x="274" y="502" type="curve" smooth="yes"/>
      <point x="216" y="606"/>
      <point x="282" y="632"/>
      <point x="334" y="653" type="curve"/>
      <point x="271" y="776" type="line"/>
      <point x="178" y="751"/>
      <point x="93" y="701"/>
      <point x="93" y="602" type="curve" smooth="yes"/>
      <point x="93" y="517"/>
      <point x="139" y="480"/>
      <point x="139" y="450" type="curve" smooth="yes"/>
      <point x="139" y="425"/>
      <point x="121" y="409"/>
      <point x="64" y="408" type="curve"/>
      <point x="64" y="278" type="line"/>
      <point x="121" y="277"/>
      <point x="139" y="261"/>
      <point x="139" y="236" type="curve" smooth="yes"/>
      <point x="139" y="194"/>
      <point x="93" y="170"/>
      <point x="93" y="85" type="curve" smooth="yes"/>
      <point x="93" y="-14"/>
      <point x="178" y="-64"/>
    </contour>
  </outline>
</glyph>
<glyph name="bar" format="2">
  <advance width="240"/>
  <unicode hex="007C"/>
  <anchor x="121" y="813" name="_top"/>
  <outline>
    <contour>
      <point x="40" y="-220" type="line"/>
      <point x="200" y="-220" type="line"/>
      <point x="200" y="880" type="line"/>
      <point x="40" y="880" type="line"/>
    </contour>
  </outline>
</glyph>
<glyph name="sterling" format="2">
  <advance width="513"/>
  <unicode hex="00A3"/>
  <outline>
    <contour>
      <point x="20" y="245" type="line"/>
      <point x="361" y="245" type="line"/>
      <point x="361" y="345" type="line"/>
      <point x="20" y="345" type="line"/>
    </contour>
    <component base="three" xScale="-1" yScale="-1" xOffset="513" yOffset="706"/>
  </outline>
</glyph>
<glyph name="yen" format="2">
  <advance width="469"/>
  <unicode hex="00A5"/>
  <outline>
    <contour>
      <point x="30" y="233" type="line"/>
      <point x="440" y="233" type="line"/>
      <point x="440" y="333" type="line"/>
      <point x="30" y="333" type="line"/>
    </contour>
    <contour>
      <point x="30" y="93" type="line"/>
      <point x="440" y="93" type="line"/>
      <point x="440" y="193" type="line"/>
      <point x="30" y="193" type="line"/>
    </contour>
    <component base="Y" identifier="2CD6D720"/>
  </outline>
</glyph>
<glyph name="brokenbar" format="2">
  <advance width="240"/>
  <unicode hex="00A6"/>
  <outline>
    <contour>
      <point x="40" y="380" type="line"/>
      <point x="200" y="380" type="line"/>
      <point x="200" y="880" type="line"/>
      <point x="40" y="880" type="line"/>
    </contour>
    <contour>
      <point x="40" y="-220" type="line"/>
      <point x="200" y="-220" type="line"/>
      <point x="200" y="280" type="line"/>
      <point x="40" y="280" type="line"/>
    </contour>
  </outline>
</glyph>
<glyph name="guillemotleft" format="2">
  <advance width="583"/>
  <unicode hex="00AB"/>
  <outline>
    <contour>
      <point x="408" y="1" type="line"/>
      <point x="563" y="45" type="line"/>
      <point x="434" y="312" type="line"/>
      <point x="563" y="579" type="line"/>
      <point x="408" y="623" type="line"/>
      <point x="260" y="312" type="line"/>
    </contour>
    <contour>
      <point x="148" y="0" type="line"/>
      <point x="303" y="40" type="line"/>
      <point x="184" y="312" type="line"/>
      <point x="303" y="584" type="line"/>
      <point x="148" y="624" type="line"/>
      <point x="20" y="312" type="line"/>
    </contour>
  </outline>
</glyph>
<glyph name="degree" format="2">
  <advance width="298"/>
  <unicode hex="00B0"/>
  <note>
degree
</note>
  <outline>
    <contour>
      <point x="150" y="428" type="curve" smooth="yes"/>
      <point x="228" y="428"/>
      <point x="288" y="488"/>
      <point x="288" y="568" type="curve" smooth="yes"/>
      <point x="288" y="646"/>
      <point x="228" y="706"/>
      <point x="150" y="706" type="curve" smooth="yes"/>
      <point x="71" y="706"/>
      <point x="10" y="646"/>
      <point x="10" y="568" type="curve" smooth="yes"/>
      <point x="10" y="488"/>
      <point x="71" y="428"/>
    </contour>
    <contour>
      <point x="150" y="512" type="curve" smooth="yes"/>
      <point x="118" y="512"/>
      <point x="94" y="536"/>
      <point x="94" y="568" type="curve" smooth="yes"/>
      <point x="94" y="598"/>
      <point x="118" y="623"/>
      <point x="150" y="623" type="curve" smooth="yes"/>
      <point x="181" y="623"/>
      <point x="205" y="598"/>
      <point x="205" y="568" type="curve" smooth="yes"/>
      <point x="205" y="536"/>
      <point x="181" y="512"/>
    </contour>
  </outline>
</glyph>
<glyph name="AE" format="2">
  <advance width="685"/>
  <unicode hex="00C6"/>
  <note>
AE
</note>
  <outline>
    <contour>
      <point x="10" y="0" type="line"/>
      <point x="177" y="0" type="line"/>
      <point x="397" y="454" type="line"/>
      <point x="397" y="706" type="line"/>
      <point x="355" y="706" type="line"/>
    </contour>
    <contour>
      <point x="155" y="59" type="line"/>
      <point x="397" y="59" type="line"/>
      <point x="397" y="225" type="line"/>
      <point x="238" y="225" type="line"/>
    </contour>
    <component base="E" xOffset="325" identifier="099E1548"/>
  </outline>
</glyph>
<glyph name="Eth" format="2">
  <advance width="593"/>
  <unicode hex="00D0"/>
  <outline>
    <contour>
      <point x="1" y="292" type="line"/>
      <point x="282" y="292" type="line"/>
      <point x="282" y="416" type="line"/>
      <point x="1" y="416" type="line"/>
    </contour>
    <component base="D" xOffset="11" identifier="76013AC5"/>
  </outline>
</glyph>
<glyph name="Oslash" format="2">
  <advance width="759"/>
  <unicode hex="00D8"/>
  <anchor x="380" y="706" name="top"/>
  <outline>
    <contour>
      <point x="131" y="-12" type="line"/>
      <point x="718" y="633" type="line"/>
      <point x="620" y="731" type="line"/>
      <point x="31" y="85" type="line"/>
    </contour>
    <component base="O"/>
  </outline>
</glyph>
<glyph name="Thorn" format="2">
  <advance width="459"/>
  <unicode hex="00DE"/>
  <outline>
    <contour>
      <point x="206" y="97" type="line"/>
      <point x="343" y="98"/>
      <point x="449" y="206"/>
      <point x="449" y="344" type="curve" smooth="yes"/>
      <point x="449" y="483"/>
      <point x="343" y="591"/>
      <point x="206" y="591" type="curve"/>
      <point x="206" y="424" type="line"/>
      <point x="250" y="422"/>
      <point x="283" y="388"/>
      <point x="283" y="344" type="curve" smooth="yes"/>
      <point x="283" y="300"/>
      <point x="250" y="265"/>
      <point x="206" y="264" type="curve"/>
    </contour>
    <contour>
      <point x="40" y="0" type="line"/>
      <point x="206" y="0" type="line"/>
      <point x="206" y="706" type="line"/>
      <point x="40" y="706" type="line"/>
    </contour>
  </outline>
</glyph>
<glyph name="germandbls" format="2">
  <advance width="625"/>
  <unicode hex="00DF"/>
  <outline>
    <contour>
      <point x="253" y="-200" type="line"/>
      <point x="387" y="-200" type="line" smooth="yes"/>
      <point x="509" y="-200"/>
      <point x="605" y="-106"/>
      <point x="605" y="17" type="curve" smooth="yes"/>
      <point x="605" y="130"/>
      <point x="524" y="232"/>
      <point x="387" y="232" type="curve"/>
      <point x="428" y="185" type="line"/>
      <point x="570" y="513" type="line"/>
      <point x="141" y="513" type="line"/>
      <point x="141" y="348" type="line"/>
      <point x="354" y="348" type="line"/>
      <point x="247" y="65" type="line"/>
      <point x="387" y="65" type="line" smooth="yes"/>
      <point x="419" y="65"/>
      <point x="434" y="41"/>
      <point x="434" y="17" type="curve" smooth="yes"/>
      <point x="434" y="-8"/>
      <point x="419" y="-32"/>
      <point x="387" y="-32" type="curve" smooth="yes"/>
      <point x="253" y="-32" type="line"/>
    </contour>
    <contour>
      <point x="40" y="-1" type="line"/>
      <point x="200" y="0" type="line"/>
      <point x="200" y="510" type="line" smooth="yes"/>
      <point x="200" y="549"/>
      <point x="231" y="580"/>
      <point x="270" y="580" type="curve" smooth="yes"/>
      <point x="309" y="580" type="line"/>
      <point x="309" y="740" type="line"/>
      <point x="270" y="740" type="line" smooth="yes"/>
      <point x="145" y="740"/>
      <point x="40" y="641"/>
      <point x="40" y="517" type="curve" smooth="yes"/>
    </contour>
  </outline>
</glyph>
<glyph name="eth" format="2">
  <advance width="600"/>
  <unicode hex="00F0"/>
  <outline>
    <contour>
      <point x="360" y="379" type="line"/>
      <point x="519" y="379" type="line"/>
      <point x="329" y="706" type="line"/>
      <point x="159" y="706" type="line"/>
    </contour>
    <component base="o"/>
    <contour>
      <point x="136" y="529" type="line"/>
      <point x="467" y="596" type="line"/>
      <point x="451" y="678" type="line"/>
      <point x="120" y="611" type="line"/>
    </contour>
  </outline>
</glyph>
<glyph name="divide" format="2">
  <advance width="502"/>
  <unicode hex="00F7"/>
  <guideline x="251" y="414" angle="180"/>
  <outline>
    <contour>
      <point x="30" y="304" type="line"/>
      <point x="472" y="304" type="line"/>
      <point x="472" y="404" type="line"/>
      <point x="30" y="404" type="line"/>
    </contour>
    <contour>
      <point x="251" y="68" type="curve" smooth="yes"/>
      <point x="306" y="68"/>
      <point x="350" y="112"/>
      <point x="350" y="167" type="curve" smooth="yes"/>
      <point x="350" y="221"/>
      <point x="306" y="264"/>
      <point x="251" y="264" type="curve" smooth="yes"/>
      <point x="197" y="264"/>
      <point x="152" y="221"/>
      <point x="152" y="167" type="curve" smooth="yes"/>
      <point x="152" y="112"/>
      <point x="197" y="68"/>
    </contour>
    <contour>
      <point x="251" y="444" type="curve" smooth="yes"/>
      <point x="306" y="444"/>
      <point x="350" y="488"/>
      <point x="350" y="543" type="curve" smooth="yes"/>
      <point x="350" y="597"/>
      <point x="306" y="640"/>
      <point x="251" y="640" type="curve" smooth="yes"/>
      <point x="197" y="640"/>
      <point x="152" y="597"/>
      <point x="152" y="543" type="curve" smooth="yes"/>
      <point x="152" y="488"/>
      <point x="197" y="444"/>
    </contour>
  </outline>
</glyph>
<glyph name="oslash" format="2">
  <advance width="569"/>
  <unicode hex="00F8"/>
  <outline>
    <component base="o"/>
    <contour>
      <point x="99" y="0" type="line"/>
      <point x="539" y="440" type="line"/>
      <point x="465" y="513" type="line"/>
      <point x="25" y="73" type="line"/>
    </contour>
  </outline>
</glyph>
<glyph name="thorn" format="2">
  <advance width="578"/>
  <unicode hex="00FE"/>
  <outline>
    <contour>
      <point x="301" y="0" type="curve" smooth="yes"/>
      <point x="447" y="0"/>
      <point x="558" y="111"/>
      <point x="558" y="256" type="curve" smooth="yes"/>
      <point x="558" y="402"/>
      <point x="447" y="513"/>
      <point x="301" y="513" type="curve" smooth="yes"/>
      <point x="155" y="513"/>
      <point x="44" y="402"/>
      <point x="44" y="256" type="curve" smooth="yes"/>
      <point x="44" y="111"/>
      <point x="155" y="0"/>
    </contour>
    <contour>
      <point x="44" y="-200" type="line"/>
      <point x="204" y="-200" type="line"/>
      <point x="204" y="706" type="line"/>
      <point x="44" y="706" type="line"/>
    </contour>
    <contour>
      <point x="301" y="160" type="curve" smooth="yes"/>
      <point x="246" y="160"/>
      <point x="204" y="202"/>
      <point x="204" y="256" type="curve" smooth="yes"/>
      <point x="204" y="311"/>
      <point x="246" y="353"/>
      <point x="301" y="353" type="curve" smooth="yes"/>
      <point x="356" y="353"/>
      <point x="398" y="311"/>
      <point x="398" y="256" type="curve" smooth="yes"/>
      <point x="398" y="202"/>
      <point x="356" y="160"/>
    </contour>
  </outline>
</glyph>
<glyph name="dcroat" format="2">
  <advance width="587"/>
  <unicode hex="0111"/>
  <outline>
    <contour>
      <point x="241" y="563" type="line"/>
      <point x="582" y="563" type="line"/>
      <point x="582" y="647" type="line"/>
      <point x="241" y="647" type="line"/>
    </contour>
    <component base="d"/>
  </outline>
</glyph>
<glyph name="Hbar" format="2">
  <advance width="628"/>
  <unicode hex="0126"/>
  <outline>
    <contour>
      <point x="68" y="707" type="line"/>
      <point x="68" y="1" type="line"/>
      <point x="234" y="1" type="line"/>
      <point x="234" y="272" type="line"/>
      <point x="394" y="271" type="line"/>
      <point x="394" y="0" type="line"/>
      <point x="561" y="0" type="line"/>
      <point x="561" y="706" type="line"/>
      <point x="394" y="706" type="line"/>
      <point x="394" y="437" type="line"/>
      <point x="234" y="438" type="line"/>
      <point x="234" y="707" type="line"/>
    </contour>
    <contour>
      <point x="10" y="538" type="line"/>
      <point x="618" y="538" type="line"/>
      <point x="618" y="631" type="line"/>
      <point x="10" y="631" type="line"/>
    </contour>
  </outline>
</glyph>
<glyph name="hbar" format="2">
  <advance width="562"/>
  <unicode hex="0127"/>
  <outline>
    <contour>
      <point x="-5" y="573" type="line"/>
      <point x="336" y="573" type="line"/>
      <point x="336" y="657" type="line"/>
      <point x="-5" y="657" type="line"/>
    </contour>
    <component base="h" xOffset="5"/>
  </outline>
</glyph>
<glyph name="idotless" format="2">
  <advance width="224"/>
  <unicode hex="0131"/>
  <anchor x="115" y="0" name="bottom"/>
  <anchor x="198" y="0" name="ogonek"/>
  <anchor x="115" y="463" name="top"/>
  <outline>
    <contour>
      <point x="32" y="463" type="line"/>
      <point x="32" y="0" type="line"/>
      <point x="192" y="0" type="line"/>
      <point x="192" y="463" type="line"/>
    </contour>
  </outline>
</glyph>
<glyph name="IJ" format="2">
  <advance width="505"/>
  <unicode hex="0132"/>
  <guideline x="36" y="351" angle="90"/>
  <anchor x="286" y="0" name="bottom"/>
  <anchor x="425" y="706" name="top"/>
  <outline>
    <contour>
      <point x="36" y="370" type="line"/>
      <point x="194" y="370" type="line"/>
      <point x="194" y="706" type="line"/>
      <point x="36" y="706" type="line"/>
    </contour>
    <component base="J" xOffset="1"/>
  </outline>
</glyph>
<glyph name="Lslash" format="2">
  <advance width="360"/>
  <unicode hex="0141"/>
  <outline>
    <contour>
      <point x="23" y="274" type="line"/>
      <point x="297" y="475" type="line"/>
      <point x="254" y="538" type="line"/>
      <point x="-19" y="336" type="line"/>
    </contour>
    <component base="L" xOffset="10"/>
  </outline>
</glyph>
<glyph name="lslash" format="2">
  <advance width="248"/>
  <unicode hex="0142"/>
  <outline>
    <contour>
      <point x="0" y="287" type="line"/>
      <point x="294" y="457" type="line"/>
      <point x="250" y="541" type="line"/>
      <point x="-43" y="368" type="line"/>
    </contour>
    <component base="l"/>
  </outline>
</glyph>
<glyph name="Schwa" format="2">
  <advance width="756"/>
  <unicode hex="018F"/>
  <guideline x="265" y="446" angle="180"/>
  <outline>
    <contour>
      <point x="377" y="0" type="curve" smooth="yes"/>
      <point x="579" y="0"/>
      <point x="731" y="153"/>
      <point x="731" y="353" type="curve" smooth="yes"/>
      <point x="731" y="553"/>
      <point x="579" y="706"/>
      <point x="377" y="706" type="curve" smooth="yes"/>
      <point x="188" y="706"/>
      <point x="41" y="569"/>
      <point x="25" y="385" type="curve"/>
      <point x="187" y="385" type="line"/>
      <point x="202" y="479"/>
      <point x="279" y="545"/>
      <point x="377" y="545" type="curve" smooth="yes"/>
      <point x="486" y="545"/>
      <point x="570" y="463"/>
      <point x="570" y="353" type="curve" smooth="yes"/>
      <point x="570" y="243"/>
      <point x="486" y="161"/>
      <point x="377" y="161" type="curve" smooth="yes"/>
      <point x="301" y="161"/>
      <point x="238" y="200"/>
      <point x="206" y="262" type="curve"/>
      <point x="35" y="262" type="line"/>
      <point x="74" y="108"/>
      <point x="209" y="0"/>
    </contour>
    <contour>
      <point x="25" y="302" type="line"/>
      <point x="611" y="302" type="line"/>
      <point x="611" y="446" type="line"/>
      <point x="80" y="446" type="line"/>
      <point x="25" y="385" type="line"/>
    </contour>
  </outline>
</glyph>
<glyph name="jdotless" format="2">
  <advance width="224"/>
  <unicode hex="0237"/>
  <anchor x="112" y="-200" name="bottom"/>
  <anchor x="112" y="463" name="top"/>
  <outline>
    <contour>
      <point x="32" y="463" type="line"/>
      <point x="32" y="-218" type="line"/>
      <point x="36" y="-218" type="line"/>
      <point x="192" y="-102" type="line"/>
      <point x="192" y="464" type="line"/>
    </contour>
  </outline>
</glyph>
<glyph name="acutecomb" format="2">
  <advance width="306"/>
  <unicode hex="0301"/>
  <anchor x="152" y="513" name="_top"/>
  <anchor x="152" y="722" name="top"/>
  <outline>
    <contour>
      <point x="36" y="544" type="line"/>
      <point x="294" y="593" type="line"/>
      <point x="264" y="722" type="line"/>
      <point x="10" y="640" type="line"/>
    </contour>
  </outline>
</glyph>
<glyph name="tildecomb" format="2">
  <advance width="478"/>
  <unicode hex="0303"/>
  <anchor x="253" y="513" name="_top"/>
  <anchor x="253" y="720" name="top"/>
  <outline>
    <contour>
      <point x="320" y="557" type="curve" smooth="yes"/>
      <point x="361" y="557"/>
      <point x="402" y="579"/>
      <point x="438" y="635" type="curve" smooth="yes"/>
      <point x="458" y="666" type="line"/>
      <point x="363" y="718" type="line"/>
      <point x="347" y="692" type="line" smooth="yes"/>
      <point x="336" y="675"/>
      <point x="325" y="671"/>
      <point x="315" y="671" type="curve" smooth="yes"/>
      <point x="307" y="671"/>
      <point x="301" y="673"/>
      <point x="296" y="676" type="curve" smooth="yes"/>
      <point x="259" y="698" type="line" smooth="yes"/>
      <point x="235" y="712"/>
      <point x="211" y="720"/>
      <point x="186" y="720" type="curve" smooth="yes"/>
      <point x="145" y="720"/>
      <point x="104" y="697"/>
      <point x="68" y="641" type="curve" smooth="yes"/>
      <point x="48" y="610" type="line"/>
      <point x="143" y="558" type="line"/>
      <point x="159" y="585" type="line" smooth="yes"/>
      <point x="170" y="601"/>
      <point x="181" y="606"/>
      <point x="190" y="606" type="curve" smooth="yes"/>
      <point x="198" y="606"/>
      <point x="205" y="603"/>
      <point x="210" y="600" type="curve" smooth="yes"/>
      <point x="247" y="578" type="line" smooth="yes"/>
      <point x="270" y="565"/>
      <point x="295" y="557"/>
    </contour>
  </outline>
</glyph>
<glyph name="macroncomb" format="2">
  <advance width="288"/>
  <unicode hex="0304"/>
  <anchor x="144" y="513" name="_top"/>
  <anchor x="144" y="698" name="top"/>
  <outline>
    <contour>
      <point x="30" y="575" type="line"/>
      <point x="258" y="575" type="line"/>
      <point x="258" y="678" type="line"/>
      <point x="30" y="678" type="line"/>
    </contour>
  </outline>
</glyph>
<glyph name="brevecomb" format="2">
  <advance width="251"/>
  <unicode hex="0306"/>
  <anchor x="126" y="513" name="_top"/>
  <anchor x="126" y="675" name="top"/>
  <outline>
    <contour>
      <point x="126" y="534" type="curve" smooth="yes"/>
      <point x="204" y="534"/>
      <point x="265" y="591"/>
      <point x="265" y="663" type="curve" smooth="yes"/>
      <point x="265" y="675" type="line"/>
      <point x="151" y="675" type="line"/>
      <point x="151" y="667" type="line" smooth="yes"/>
      <point x="151" y="653"/>
      <point x="140" y="641"/>
      <point x="126" y="641" type="curve" smooth="yes"/>
      <point x="111" y="641"/>
      <point x="100" y="653"/>
      <point x="100" y="667" type="curve" smooth="yes"/>
      <point x="100" y="675" type="line"/>
      <point x="-14" y="675" type="line"/>
      <point x="-14" y="663" type="line" smooth="yes"/>
      <point x="-14" y="591"/>
      <point x="47" y="534"/>
    </contour>
  </outline>
</glyph>
<glyph name="dotaccentcomb" format="2">
  <advance width="312"/>
  <unicode hex="0307"/>
  <anchor x="156" y="513" name="_top"/>
  <anchor x="156" y="781" name="top"/>
  <outline>
    <contour>
      <point x="156" y="564" type="curve" smooth="yes"/>
      <point x="209" y="564"/>
      <point x="250" y="605"/>
      <point x="250" y="659" type="curve" smooth="yes"/>
      <point x="250" y="709"/>
      <point x="209" y="752"/>
      <point x="156" y="752" type="curve" smooth="yes"/>
      <point x="106" y="752"/>
      <point x="62" y="709"/>
      <point x="62" y="659" type="curve" smooth="yes"/>
      <point x="62" y="605"/>
      <point x="106" y="564"/>
    </contour>
  </outline>
</glyph>
<glyph name="dieresiscomb" format="2">
  <advance width="356"/>
  <unicode hex="0308"/>
  <guideline x="192" y="574" angle="0"/>
  <guideline x="160" y="669" angle="90"/>
  <anchor x="178" y="513" name="_top"/>
  <anchor x="178" y="731" name="top"/>
  <outline>
    <contour>
      <point x="273" y="568" type="curve" smooth="yes"/>
      <point x="311" y="568"/>
      <point x="343" y="598"/>
      <point x="343" y="639" type="curve" smooth="yes"/>
      <point x="343" y="677"/>
      <point x="311" y="707"/>
      <point x="273" y="707" type="curve" smooth="yes"/>
      <point x="231" y="707"/>
      <point x="200" y="677"/>
      <point x="200" y="639" type="curve" smooth="yes"/>
      <point x="200" y="598"/>
      <point x="231" y="568"/>
    </contour>
    <contour>
      <point x="87" y="568" type="curve" smooth="yes"/>
      <point x="125" y="568"/>
      <point x="157" y="598"/>
      <point x="157" y="639" type="curve" smooth="yes"/>
      <point x="157" y="677"/>
      <point x="125" y="707"/>
      <point x="87" y="707" type="curve" smooth="yes"/>
      <point x="45" y="707"/>
      <point x="14" y="677"/>
      <point x="14" y="639" type="curve" smooth="yes"/>
      <point x="14" y="598"/>
      <point x="45" y="568"/>
    </contour>
  </outline>
</glyph>
<glyph name="ringcomb" format="2">
  <advance width="285"/>
  <unicode hex="030A"/>
  <anchor x="143" y="513" name="_top"/>
  <outline>
    <contour>
      <point x="143" y="463" type="curve" smooth="yes"/>
      <point x="210" y="463"/>
      <point x="265" y="518"/>
      <point x="265" y="586" type="curve" smooth="yes"/>
      <point x="265" y="653"/>
      <point x="210" y="708"/>
      <point x="143" y="708" type="curve" smooth="yes"/>
      <point x="76" y="708"/>
      <point x="20" y="654"/>
      <point x="20" y="586" type="curve" smooth="yes"/>
      <point x="20" y="518"/>
      <point x="75" y="463"/>
    </contour>
    <contour>
      <point x="143" y="559" type="curve" smooth="yes"/>
      <point x="128" y="559"/>
      <point x="117" y="571"/>
      <point x="117" y="586" type="curve" smooth="yes"/>
      <point x="117" y="600"/>
      <point x="128" y="612"/>
      <point x="143" y="612" type="curve" smooth="yes"/>
      <point x="157" y="612"/>
      <point x="168" y="600"/>
      <point x="168" y="586" type="curve" smooth="yes"/>
      <point x="168" y="571"/>
      <point x="157" y="559"/>
    </contour>
  </outline>
</glyph>
<glyph name="hungarumlautcomb" format="2">
  <advance width="371"/>
  <unicode hex="030B"/>
  <guideline x="114" y="830" angle="172.1309"/>
  <anchor x="139" y="513" name="_top"/>
  <anchor x="139" y="800" name="top"/>
  <outline>
    <contour>
      <point x="160" y="561" type="line"/>
      <point x="268" y="561" type="line"/>
      <point x="331" y="729" type="line"/>
      <point x="212" y="729" type="line"/>
    </contour>
    <contour>
      <point x="2" y="561" type="line"/>
      <point x="103" y="561" type="line"/>
      <point x="145" y="729" type="line"/>
      <point x="28" y="729" type="line"/>
    </contour>
  </outline>
</glyph>
<glyph name="caroncomb" format="2">
  <advance width="324"/>
  <unicode hex="030C"/>
  <anchor x="162" y="513" name="_top"/>
  <anchor x="162" y="742" name="top"/>
  <outline>
    <contour>
      <point x="162" y="533" type="line"/>
      <point x="330" y="630" type="line"/>
      <point x="278" y="721" type="line"/>
      <point x="162" y="664" type="line"/>
      <point x="46" y="721" type="line"/>
      <point x="-6" y="630" type="line"/>
    </contour>
  </outline>
</glyph>
<glyph name="commaturnedabovecomb" format="2">
  <advance width="162"/>
  <unicode hex="0312"/>
  <anchor x="81" y="513" name="_top"/>
  <anchor x="81" y="782" name="top"/>
  <outline>
    <contour>
      <point x="20" y="567" type="line"/>
      <point x="142" y="567" type="line"/>
      <point x="142" y="782" type="line"/>
      <point x="44" y="782" type="line"/>
    </contour>
  </outline>
</glyph>
<glyph name="commaaccentcomb" format="2">
  <advance width="162"/>
  <unicode hex="0326"/>
  <anchor x="81" y="0" name="_bottom"/>
  <anchor x="81" y="-275" name="bottom"/>
  <outline>
    <contour>
      <point x="20" y="-275" type="line"/>
      <point x="118" y="-275" type="line"/>
      <point x="142" y="-60" type="line"/>
      <point x="20" y="-60" type="line"/>
    </contour>
  </outline>
</glyph>
<glyph name="cedillacomb" format="2">
  <advance width="228"/>
  <unicode hex="0327"/>
  <anchor x="139" y="0" name="_bottom"/>
  <outline>
    <contour>
      <point x="143" y="-204" type="line"/>
      <point x="193" y="12" type="line"/>
      <point x="104" y="40" type="line"/>
      <point x="-5" y="-144" type="line"/>
    </contour>
  </outline>
</glyph>
<glyph name="ogonekcomb" format="2">
  <advance width="232"/>
  <unicode hex="0328"/>
  <anchor x="177" y="13" name="_ogonek"/>
  <outline>
    <contour>
      <point x="122" y="69" type="line"/>
      <point x="80" y="32" type="line" smooth="yes"/>
      <point x="33" y="-9"/>
      <point x="22" y="-43"/>
      <point x="22" y="-73" type="curve" smooth="yes"/>
      <point x="22" y="-135"/>
      <point x="74" y="-192"/>
      <point x="159" y="-198" type="curve" smooth="yes"/>
      <point x="173" y="-199" type="line"/>
      <point x="194" y="-89" type="line"/>
      <point x="184" y="-89" type="line" smooth="yes"/>
      <point x="155" y="-89"/>
      <point x="135" y="-68"/>
      <point x="135" y="-44" type="curve" smooth="yes"/>
      <point x="135" y="-28"/>
      <point x="143" y="-11"/>
      <point x="163" y="3" type="curve" smooth="yes"/>
      <point x="177" y="13" type="line"/>
    </contour>
  </outline>
</glyph>
<glyph name="Germandbls" format="2">
  <advance width="645"/>
  <unicode hex="1E9E"/>
  <outline>
    <contour>
      <point x="40" y="0" type="line"/>
      <point x="206" y="0" type="line"/>
      <point x="206" y="541" type="line"/>
      <point x="371" y="541" type="line"/>
      <point x="267" y="265" type="line"/>
      <point x="407" y="265" type="line" smooth="yes"/>
      <point x="433" y="265"/>
      <point x="455" y="243"/>
      <point x="455" y="217" type="curve" smooth="yes"/>
      <point x="455" y="189"/>
      <point x="435" y="168"/>
      <point x="407" y="168" type="curve" smooth="yes"/>
      <point x="273" y="168" type="line"/>
      <point x="273" y="0" type="line"/>
      <point x="407" y="0" type="line" smooth="yes"/>
      <point x="529" y="0"/>
      <point x="625" y="94"/>
      <point x="625" y="217" type="curve" smooth="yes"/>
      <point x="625" y="319"/>
      <point x="559" y="400"/>
      <point x="466" y="426" type="curve"/>
      <point x="587" y="706" type="line"/>
      <point x="40" y="706" type="line"/>
    </contour>
  </outline>
</glyph>
<glyph name="endash" format="2">
  <advance width="390"/>
  <unicode hex="2013"/>
  <outline>
    <contour>
      <point x="30" y="216" type="line"/>
      <point x="360" y="216" type="line"/>
      <point x="360" y="376" type="line"/>
      <point x="30" y="376" type="line"/>
    </contour>
  </outline>
</glyph>
<glyph name="bullet" format="2">
  <advance width="508"/>
  <unicode hex="2022"/>
  <outline>
    <contour>
      <point x="254" y="219" type="curve" smooth="yes"/>
      <point x="339" y="219"/>
      <point x="408" y="288"/>
      <point x="408" y="373" type="curve" smooth="yes"/>
      <point x="408" y="458"/>
      <point x="339" y="527"/>
      <point x="254" y="527" type="curve" smooth="yes"/>
      <point x="169" y="527"/>
      <point x="100" y="458"/>
      <point x="100" y="373" type="curve" smooth="yes"/>
      <point x="100" y="288"/>
      <point x="169" y="219"/>
    </contour>
  </outline>
</glyph>
<glyph name="guilsinglleft" format="2">
  <advance width="313"/>
  <unicode hex="2039"/>
  <outline>
    <contour>
      <point x="138" y="-38" type="line"/>
      <point x="293" y="2" type="line"/>
      <point x="174" y="274" type="line"/>
      <point x="293" y="546" type="line"/>
      <point x="138" y="586" type="line"/>
      <point x="20" y="274" type="line"/>
    </contour>
  </outline>
</glyph>
<glyph name="Euro" format="2">
  <advance width="456"/>
  <unicode hex="20AC"/>
  <outline>
    <contour>
      <point x="0" y="373" type="line"/>
      <point x="410" y="373" type="line"/>
      <point x="410" y="473" type="line"/>
      <point x="0" y="473" type="line"/>
    </contour>
    <contour>
      <point x="0" y="233" type="line"/>
      <point x="410" y="233" type="line"/>
      <point x="410" y="333" type="line"/>
      <point x="0" y="333" type="line"/>
    </contour>
    <component base="C" xOffset="33" identifier="94C0F7DB"/>
  </outline>
</glyph>
<glyph name="numero" format="2">
  <advance width="996"/>
  <unicode hex="2116"/>
  <outline>
    <contour>
      <point x="767" y="283" type="curve" smooth="yes"/>
      <point x="885" y="283"/>
      <point x="976" y="374"/>
      <point x="976" y="496" type="curve" smooth="yes"/>
      <point x="976" y="615"/>
      <point x="885" y="706"/>
      <point x="767" y="706" type="curve" smooth="yes"/>
      <point x="646" y="706"/>
      <point x="554" y="615"/>
      <point x="554" y="496" type="curve" smooth="yes"/>
      <point x="554" y="374"/>
      <point x="646" y="283"/>
    </contour>
    <component base="N.ss01"/>
    <component base="period" xOffset="636"/>
    <contour>
      <point x="767" y="435" type="curve" smooth="yes"/>
      <point x="732" y="435"/>
      <point x="705" y="461"/>
      <point x="705" y="496" type="curve" smooth="yes"/>
      <point x="705" y="529"/>
      <point x="732" y="556"/>
      <point x="767" y="556" type="curve" smooth="yes"/>
      <point x="800" y="556"/>
      <point x="826" y="529"/>
      <point x="826" y="496" type="curve" smooth="yes"/>
      <point x="826" y="461"/>
      <point x="800" y="435"/>
    </contour>
  </outline>
</glyph>
<glyph name="rightArrow" format="2">
  <advance width="807"/>
  <unicode hex="2192"/>
  <outline>
    <contour>
      <point x="486" y="52" type="line"/>
      <point x="767" y="341" type="line"/>
      <point x="486" y="634" type="line"/>
      <point x="486" y="402" type="line"/>
      <point x="40" y="468" type="line"/>
      <point x="40" y="218" type="line"/>
      <point x="486" y="284" type="line"/>
    </contour>
  </outline>
</glyph>
<glyph name="downArrow" format="2">
  <advance width="592"/>
  <unicode hex="2193"/>
  <outline>
    <contour>
      <point x="245" y="173" type="line"/>
      <point x="337" y="173" type="line"/>
      <point x="416" y="706" type="line"/>
      <point x="166" y="706" type="line"/>
    </contour>
    <contour>
      <point x="289" y="-21" type="line"/>
      <point x="542" y="260" type="line"/>
      <point x="40" y="260" type="line"/>
    </contour>
  </outline>
</glyph>
<glyph name="minus" format="2">
  <advance width="502"/>
  <unicode hex="2212"/>
  <guideline x="251" y="414" angle="180"/>
  <outline>
    <contour>
      <point x="30" y="253" type="line"/>
      <point x="472" y="253" type="line"/>
      <point x="472" y="414" type="line"/>
      <point x="30" y="414" type="line"/>
    </contour>
  </outline>
</glyph>
<glyph name="whiteSmilingFace" format="2">
  <advance width="824"/>
  <unicode hex="263A"/>
  <outline>
    <contour>
      <point x="202" y="0" type="line"/>
      <point x="598" y="0" type="line"/>
      <point x="598" y="166" type="line"/>
      <point x="412" y="166" type="line"/>
      <point x="528" y="706" type="line"/>
      <point x="354" y="706" type="line"/>
    </contour>
    <contour>
      <point x="149" y="428" type="curve" smooth="yes"/>
      <point x="227" y="428"/>
      <point x="288" y="489"/>
      <point x="288" y="567" type="curve" smooth="yes"/>
      <point x="288" y="645"/>
      <point x="227" y="706"/>
      <point x="149" y="706" type="curve" smooth="yes"/>
      <point x="71" y="706"/>
      <point x="10" y="645"/>
      <point x="10" y="567" type="curve" smooth="yes"/>
      <point x="10" y="489"/>
      <point x="71" y="428"/>
    </contour>
    <contour>
      <point x="149" y="527" type="curve" smooth="yes"/>
      <point x="126" y="527"/>
      <point x="109" y="544"/>
      <point x="109" y="567" type="curve" smooth="yes"/>
      <point x="109" y="590"/>
      <point x="126" y="607"/>
      <point x="149" y="607" type="curve" smooth="yes"/>
      <point x="172" y="607"/>
      <point x="189" y="590"/>
      <point x="189" y="567" type="curve" smooth="yes"/>
      <point x="189" y="544"/>
      <point x="172" y="527"/>
    </contour>
    <contour>
      <point x="675" y="428" type="curve" smooth="yes"/>
      <point x="753" y="428"/>
      <point x="814" y="489"/>
      <point x="814" y="567" type="curve" smooth="yes"/>
      <point x="814" y="645"/>
      <point x="753" y="706"/>
      <point x="675" y="706" type="curve" smooth="yes"/>
      <point x="597" y="706"/>
      <point x="536" y="645"/>
      <point x="536" y="567" type="curve" smooth="yes"/>
      <point x="536" y="489"/>
      <point x="597" y="428"/>
    </contour>
    <contour>
      <point x="675" y="527" type="curve" smooth="yes"/>
      <point x="652" y="527"/>
      <point x="635" y="544"/>
      <point x="635" y="567" type="curve" smooth="yes"/>
      <point x="635" y="590"/>
      <point x="652" y="607"/>
      <point x="675" y="607" type="curve" smooth="yes"/>
      <point x="698" y="607"/>
      <point x="715" y="590"/>
      <point x="715" y="567" type="curve" smooth="yes"/>
      <point x="715" y="544"/>
      <point x="698" y="527"/>
    </contour>
  </outline>
</glyph>
<glyph name="Saltillo" format="2">
  <advance width="224"/>
  <unicode hex="A78B"/>
  <outline>
    <contour>
      <point x="80" y="346" type="line"/>
      <point x="143" y="346" type="line"/>
      <point x="188" y="706" type="line"/>
      <point x="36" y="706" type="line"/>
    </contour>
  </outline>
</glyph>
<glyph name="saltillo" format="2">
  <advance width="195"/>
  <unicode hex="A78C"/>
  <outline>
    <contour>
      <point x="40" y="493" type="line"/>
      <point x="155" y="493" type="line"/>
      <point x="155" y="730" type="line"/>
      <point x="40" y="730" type="line"/>
    </contour>
  </outline>
</glyph>
<glyph name="A.ss01" format="2">
  <advance width="610"/>
  <anchor x="305" y="0" name="bottom"/>
  <anchor x="600" y="0" name="ogonek"/>
  <anchor x="305" y="706" name="top"/>
  <outline>
    <contour>
      <point x="10" y="0" type="line"/>
      <point x="181" y="0" type="line"/>
      <point x="305" y="429" type="line"/>
      <point x="431" y="0" type="line"/>
      <point x="600" y="0" type="line"/>
      <point x="384" y="706" type="line"/>
      <point x="227" y="706" type="line"/>
    </contour>
    <contour>
      <point x="163" y="97" type="line"/>
      <point x="448" y="97" type="line"/>
      <point x="398" y="247" type="line"/>
      <point x="213" y="247" type="line"/>
    </contour>
  </outline>
</glyph>
<glyph name="C.ss01" format="2">
  <advance width="574"/>
  <anchor x="287" y="0" name="bottom"/>
  <anchor x="287" y="706" name="top"/>
  <outline>
    <contour>
      <point x="287" y="-10" type="curve" smooth="yes"/>
      <point x="433" y="-10"/>
      <point x="544" y="101"/>
      <point x="544" y="247" type="curve" smooth="yes"/>
      <point x="544" y="256" type="line"/>
      <point x="384" y="256" type="line"/>
      <point x="384" y="247" type="line" smooth="yes"/>
      <point x="384" y="192"/>
      <point x="342" y="150"/>
      <point x="287" y="150" type="curve" smooth="yes"/>
      <point x="232" y="150"/>
      <point x="190" y="192"/>
      <point x="190" y="247" type="curve" smooth="yes"/>
      <point x="190" y="459" type="line" smooth="yes"/>
      <point x="190" y="514"/>
      <point x="232" y="556"/>
      <point x="287" y="556" type="curve" smooth="yes"/>
      <point x="342" y="556"/>
      <point x="384" y="514"/>
      <point x="384" y="459" type="curve" smooth="yes"/>
      <point x="384" y="443" type="line"/>
      <point x="544" y="443" type="line"/>
      <point x="544" y="460" type="line" smooth="yes"/>
      <point x="544" y="606"/>
      <point x="433" y="716"/>
      <point x="287" y="716" type="curve" smooth="yes"/>
      <point x="141" y="716"/>
      <point x="30" y="606"/>
      <point x="30" y="460" type="curve" smooth="yes"/>
      <point x="30" y="247" type="line" smooth="yes"/>
      <point x="30" y="101"/>
      <point x="141" y="-10"/>
    </contour>
  </outline>
</glyph>
<glyph name="C.ss03" format="2">
  <advance width="782"/>
  <anchor x="392" y="0" name="bottom"/>
  <anchor x="392" y="706" name="top"/>
  <outline>
    <contour>
      <point x="393" y="-14" type="curve" smooth="yes"/>
      <point x="583" y="-14"/>
      <point x="733" y="119"/>
      <point x="757" y="301" type="curve"/>
      <point x="592" y="301" type="line"/>
      <point x="570" y="211"/>
      <point x="491" y="148"/>
      <point x="393" y="148" type="curve" smooth="yes"/>
      <point x="276" y="148"/>
      <point x="187" y="237"/>
      <point x="187" y="353" type="curve" smooth="yes"/>
      <point x="187" y="469"/>
      <point x="276" y="558"/>
      <point x="393" y="558" type="curve" smooth="yes"/>
      <point x="491" y="558"/>
      <point x="570" y="495"/>
      <point x="592" y="405" type="curve"/>
      <point x="757" y="405" type="line"/>
      <point x="733" y="587"/>
      <point x="583" y="720"/>
      <point x="393" y="720" type="curve" smooth="yes"/>
      <point x="184" y="720"/>
      <point x="25" y="561"/>
      <point x="25" y="353" type="curve" smooth="yes"/>
      <point x="25" y="145"/>
      <point x="184" y="-14"/>
    </contour>
  </outline>
</glyph>
<glyph name="D.ss01" format="2">
  <advance width="547"/>
  <anchor x="294" y="0" name="bottom"/>
  <anchor x="294" y="353" name="center"/>
  <anchor x="244" y="706" name="top"/>
  <outline>
    <contour>
      <point x="40" y="0" type="line"/>
      <point x="261" y="0" type="line" smooth="yes"/>
      <point x="407" y="0"/>
      <point x="517" y="111"/>
      <point x="517" y="257" type="curve" smooth="yes"/>
      <point x="517" y="450" type="line" smooth="yes"/>
      <point x="516" y="596"/>
      <point x="407" y="706"/>
      <point x="261" y="706" type="curve" smooth="yes"/>
      <point x="40" y="706" type="line"/>
    </contour>
    <contour>
      <point x="200" y="160" type="line"/>
      <point x="200" y="546" type="line"/>
      <point x="260" y="546" type="line" smooth="yes"/>
      <point x="315" y="546"/>
      <point x="357" y="504"/>
      <point x="357" y="449" type="curve" smooth="yes"/>
      <point x="357" y="257" type="line" smooth="yes"/>
      <point x="357" y="202"/>
      <point x="315" y="160"/>
      <point x="260" y="160" type="curve" smooth="yes"/>
    </contour>
  </outline>
</glyph>
<glyph name="Dcroat.ss01" format="2">
  <advance width="593"/>
  <outline>
    <contour>
      <point x="1" y="292" type="line"/>
      <point x="282" y="292" type="line"/>
      <point x="282" y="416" type="line"/>
      <point x="1" y="416" type="line"/>
    </contour>
    <component base="D.ss01"/>
  </outline>
</glyph>
<glyph name="G.ss01" format="2">
  <advance width="564"/>
  <outline>
    <contour>
      <point x="282" y="-10" type="curve" smooth="yes"/>
      <point x="428" y="-10"/>
      <point x="539" y="101"/>
      <point x="539" y="247" type="curve" smooth="yes"/>
      <point x="539" y="306" type="line"/>
      <point x="379" y="306" type="line"/>
      <point x="379" y="247" type="line" smooth="yes"/>
      <point x="379" y="192"/>
      <point x="337" y="150"/>
      <point x="282" y="150" type="curve" smooth="yes"/>
      <point x="227" y="150"/>
      <point x="185" y="192"/>
      <point x="185" y="247" type="curve" smooth="yes"/>
      <point x="185" y="459" type="line" smooth="yes"/>
      <point x="185" y="514"/>
      <point x="227" y="556"/>
      <point x="282" y="556" type="curve" smooth="yes"/>
      <point x="337" y="556"/>
      <point x="379" y="514"/>
      <point x="379" y="459" type="curve" smooth="yes"/>
      <point x="379" y="454" type="line"/>
      <point x="539" y="454" type="line"/>
      <point x="539" y="460" type="line" smooth="yes"/>
      <point x="539" y="606"/>
      <point x="428" y="716"/>
      <point x="282" y="716" type="curve" smooth="yes"/>
      <point x="136" y="716"/>
      <point x="25" y="606"/>
      <point x="25" y="460" type="curve" smooth="yes"/>
      <point x="25" y="247" type="line" smooth="yes"/>
      <point x="25" y="101"/>
      <point x="136" y="-10"/>
    </contour>
    <contour>
      <point x="287" y="247" type="line"/>
      <point x="539" y="247" type="line"/>
      <point x="539" y="396" type="line"/>
      <point x="287" y="396" type="line"/>
    </contour>
  </outline>
</glyph>
<glyph name="J.ss01" format="2">
  <advance width="525"/>
  <outline>
    <contour>
      <point x="272" y="-10" type="curve" smooth="yes"/>
      <point x="393" y="-10"/>
      <point x="489" y="86"/>
      <point x="489" y="207" type="curve" smooth="yes"/>
      <point x="489" y="706" type="line"/>
      <point x="331" y="706" type="line"/>
      <point x="331" y="207" type="line" smooth="yes"/>
      <point x="331" y="175"/>
      <point x="304" y="148"/>
      <point x="272" y="148" type="curve" smooth="yes"/>
      <point x="240" y="148"/>
      <point x="214" y="174"/>
      <point x="214" y="207" type="curve" smooth="yes"/>
      <point x="214" y="276" type="line"/>
      <point x="56" y="276" type="line"/>
      <point x="56" y="207" type="line" smooth="yes"/>
      <point x="56" y="86"/>
      <point x="152" y="-10"/>
    </contour>
    <contour>
      <point x="115" y="546" type="line"/>
      <point x="489" y="546" type="line"/>
      <point x="489" y="706" type="line"/>
      <point x="115" y="706" type="line"/>
    </contour>
  </outline>
</glyph>
<glyph name="K.ss01" format="2">
  <advance width="537"/>
  <anchor x="264" y="0" name="bottom"/>
  <anchor x="264" y="706" name="top"/>
  <outline>
    <contour>
      <point x="141" y="255" type="line"/>
      <point x="490" y="531" type="line"/>
      <point x="490" y="735" type="line"/>
      <point x="489" y="736" type="line"/>
      <point x="141" y="449" type="line"/>
    </contour>
    <contour>
      <point x="40" y="0" type="line"/>
      <point x="200" y="0" type="line"/>
      <point x="200" y="706" type="line"/>
      <point x="40" y="706" type="line"/>
    </contour>
    <contour>
      <point x="336" y="0" type="line"/>
      <point x="502" y="0" type="line"/>
      <point x="387" y="490" type="line"/>
      <point x="257" y="370" type="line"/>
    </contour>
  </outline>
</glyph>
<glyph name="L_L.dlig" format="2">
  <advance width="573"/>
  <outline>
    <contour>
      <point x="40" y="0" type="line"/>
      <point x="453" y="0" type="line"/>
      <point x="453" y="160" type="line"/>
      <point x="200" y="160" type="line"/>
      <point x="200" y="707" type="line"/>
      <point x="40" y="707" type="line"/>
    </contour>
    <contour>
      <point x="271" y="232" type="line"/>
      <point x="553" y="232" type="line"/>
      <point x="553" y="392" type="line"/>
      <point x="431" y="392" type="line"/>
      <point x="431" y="670" type="line"/>
      <point x="271" y="670" type="line"/>
    </contour>
  </outline>
</glyph>
<glyph name="M.ss01" format="2">
  <advance width="668"/>
  <anchor x="334" y="0" name="bottom"/>
  <anchor x="334" y="706" name="top"/>
  <outline>
    <contour>
      <point x="40" y="0" type="line"/>
      <point x="196" y="0" type="line"/>
      <point x="196" y="467" type="line"/>
      <point x="331" y="212" type="line"/>
      <point x="337" y="212" type="line"/>
      <point x="472" y="467" type="line"/>
      <point x="472" y="0" type="line"/>
      <point x="628" y="0" type="line"/>
      <point x="628" y="707" type="line"/>
      <point x="439" y="707" type="line"/>
      <point x="334" y="506" type="line"/>
      <point x="229" y="707" type="line"/>
      <point x="40" y="707" type="line"/>
    </contour>
  </outline>
</glyph>
<glyph name="N.ss01" format="2">
  <advance width="548"/>
  <anchor x="274" y="0" name="bottom"/>
  <anchor x="274" y="706" name="top"/>
  <outline>
    <contour>
      <point x="40" y="0" type="line"/>
      <point x="200" y="0" type="line"/>
      <point x="200" y="304" type="line"/>
      <point x="375" y="0" type="line"/>
      <point x="508" y="0" type="line"/>
      <point x="508" y="706" type="line"/>
      <point x="347" y="706" type="line"/>
      <point x="347" y="364" type="line"/>
      <point x="173" y="706" type="line"/>
      <point x="40" y="706" type="line"/>
    </contour>
  </outline>
</glyph>
<glyph name="O.001" format="2">
  <advance width="757"/>
  <note>
O
</note>
  <anchor x="379" y="706" name="top"/>
  <outline>
    <contour>
      <point x="379" y="0" type="curve" smooth="yes"/>
      <point x="579" y="0"/>
      <point x="732" y="153"/>
      <point x="732" y="353" type="curve" smooth="yes"/>
      <point x="732" y="553"/>
      <point x="579" y="706"/>
      <point x="379" y="706" type="curve" smooth="yes"/>
      <point x="177" y="706"/>
      <point x="25" y="553"/>
      <point x="25" y="353" type="curve" smooth="yes"/>
      <point x="25" y="153"/>
      <point x="177" y="0"/>
    </contour>
    <contour>
      <point x="379" y="160" type="curve" smooth="yes"/>
      <point x="270" y="160"/>
      <point x="186" y="245"/>
      <point x="186" y="353" type="curve" smooth="yes"/>
      <point x="186" y="463"/>
      <point x="270" y="545"/>
      <point x="379" y="545" type="curve" smooth="yes"/>
      <point x="488" y="545"/>
      <point x="571" y="463"/>
      <point x="571" y="353" type="curve" smooth="yes"/>
      <point x="571" y="245"/>
      <point x="488" y="160"/>
    </contour>
  </outline>
</glyph>
<glyph name="Q.ss01" format="2">
  <advance width="599"/>
  <guideline x="493" y="-20" angle="0"/>
  <outline>
    <contour>
      <point x="572" y="-38" type="line"/>
      <point x="574" y="-37" type="line"/>
      <point x="574" y="150" type="line"/>
      <point x="269" y="423" type="line"/>
      <point x="267" y="422" type="line"/>
      <point x="267" y="234" type="line"/>
    </contour>
    <component base="zero.ss01"/>
  </outline>
</glyph>
<glyph name="Schwa.ss01" format="2">
  <advance width="564"/>
  <outline>
    <contour>
      <point x="282" y="-10" type="curve" smooth="yes"/>
      <point x="428" y="-10"/>
      <point x="539" y="100"/>
      <point x="539" y="246" type="curve" smooth="yes"/>
      <point x="539" y="459" type="line" smooth="yes"/>
      <point x="539" y="605"/>
      <point x="428" y="716"/>
      <point x="282" y="716" type="curve" smooth="yes"/>
      <point x="136" y="716"/>
      <point x="25" y="605"/>
      <point x="25" y="459" type="curve" smooth="yes"/>
      <point x="25" y="400" type="line"/>
      <point x="185" y="400" type="line"/>
      <point x="185" y="459" type="line" smooth="yes"/>
      <point x="185" y="514"/>
      <point x="227" y="556"/>
      <point x="282" y="556" type="curve" smooth="yes"/>
      <point x="337" y="556"/>
      <point x="379" y="514"/>
      <point x="379" y="459" type="curve" smooth="yes"/>
      <point x="379" y="247" type="line" smooth="yes"/>
      <point x="379" y="192"/>
      <point x="337" y="150"/>
      <point x="282" y="150" type="curve" smooth="yes"/>
      <point x="227" y="150"/>
      <point x="185" y="192"/>
      <point x="185" y="247" type="curve" smooth="yes"/>
      <point x="185" y="258" type="line"/>
      <point x="25" y="258" type="line"/>
      <point x="25" y="246" type="line" smooth="yes"/>
      <point x="25" y="100"/>
      <point x="136" y="-10"/>
    </contour>
    <contour>
      <point x="25" y="310" type="line"/>
      <point x="387" y="310" type="line"/>
      <point x="387" y="450" type="line"/>
      <point x="25" y="450" type="line"/>
    </contour>
  </outline>
</glyph>
<glyph name="V.ss01" format="2">
  <advance width="490"/>
  <outline>
    <contour>
      <point x="121" y="0" type="line"/>
      <point x="369" y="0" type="line"/>
      <point x="480" y="706" type="line"/>
      <point x="309" y="706" type="line"/>
      <point x="245" y="178" type="line"/>
      <point x="181" y="706" type="line"/>
      <point x="10" y="706" type="line"/>
    </contour>
  </outline>
</glyph>
<glyph name="VTF" format="2">
  <advance width="1200"/>
  <anchor x="615" y="774" name="top"/>
  <outline>
    <contour>
      <point x="601" y="-153" type="curve" smooth="yes"/>
      <point x="889" y="-153"/>
      <point x="1123" y="81"/>
      <point x="1123" y="371" type="curve" smooth="yes"/>
      <point x="1123" y="660"/>
      <point x="889" y="894"/>
      <point x="601" y="894" type="curve" smooth="yes"/>
      <point x="311" y="894"/>
      <point x="77" y="660"/>
      <point x="77" y="371" type="curve" smooth="yes"/>
      <point x="77" y="81"/>
      <point x="311" y="-153"/>
    </contour>
    <contour>
      <point x="601" y="-106" type="curve" smooth="yes"/>
      <point x="338" y="-106"/>
      <point x="124" y="108"/>
      <point x="124" y="371" type="curve" smooth="yes"/>
      <point x="124" y="634"/>
      <point x="338" y="847"/>
      <point x="601" y="847" type="curve" smooth="yes"/>
      <point x="862" y="847"/>
      <point x="1076" y="634"/>
      <point x="1076" y="371" type="curve" smooth="yes"/>
      <point x="1076" y="108"/>
      <point x="862" y="-106"/>
    </contour>
    <contour>
      <point x="602" y="-17" type="curve" smooth="yes"/>
      <point x="383" y="-17"/>
      <point x="213" y="153"/>
      <point x="213" y="372" type="curve"/>
      <point x="260" y="372" type="line"/>
      <point x="260" y="178"/>
      <point x="408" y="30"/>
      <point x="602" y="30" type="curve" smooth="yes"/>
      <point x="794" y="30"/>
      <point x="943" y="178"/>
      <point x="943" y="372" type="curve" smooth="yes"/>
      <point x="943" y="374"/>
      <point x="988" y="374"/>
      <point x="988" y="372" type="curve" smooth="yes"/>
      <point x="988" y="153"/>
      <point x="821" y="-17"/>
    </contour>
    <contour>
      <point x="657" y="99" type="line"/>
      <point x="468" y="288" type="line"/>
      <point x="636" y="454" type="line"/>
      <point x="670" y="420" type="line"/>
      <point x="537" y="289" type="line"/>
      <point x="583" y="245" type="line"/>
      <point x="661" y="325" type="line"/>
      <point x="695" y="290" type="line"/>
      <point x="617" y="211" type="line"/>
      <point x="693" y="134" type="line"/>
    </contour>
    <contour>
      <point x="414" y="333" type="line"/>
      <point x="254" y="604" type="line"/>
      <point x="315" y="604" type="line"/>
      <point x="414" y="432" type="line"/>
      <point x="510" y="604" type="line"/>
      <point x="571" y="604" type="line"/>
    </contour>
    <contour>
      <point x="769" y="333" type="line"/>
      <point x="769" y="553" type="line"/>
      <point x="656" y="553" type="line"/>
      <point x="656" y="604" type="line"/>
      <point x="932" y="604" type="line"/>
      <point x="932" y="553" type="line"/>
      <point x="818" y="553" type="line"/>
      <point x="821" y="333" type="line"/>
    </contour>
  </outline>
</glyph>
<glyph name="W.ss01" format="2">
  <advance width="795"/>
  <anchor x="398" y="0" name="bottom"/>
  <anchor x="398" y="706" name="top"/>
  <outline>
    <contour>
      <point x="128" y="-1" type="line"/>
      <point x="274" y="-1" type="line"/>
      <point x="388" y="291" type="line"/>
      <point x="501" y="-1" type="line"/>
      <point x="647" y="-1" type="line"/>
      <point x="725" y="706" type="line"/>
      <point x="562" y="706" type="line"/>
      <point x="526" y="318" type="line"/>
      <point x="444" y="557" type="line"/>
      <point x="331" y="557" type="line"/>
      <point x="249" y="318" type="line"/>
      <point x="213" y="706" type="line"/>
      <point x="50" y="706" type="line"/>
    </contour>
  </outline>
</glyph>
<glyph name="acutecomb.case" format="2">
  <advance width="346"/>
  <anchor x="179" y="513" name="_top"/>
  <anchor x="179" y="732" name="top"/>
  <outline>
    <contour>
      <point x="51" y="553" type="line"/>
      <point x="315" y="604" type="line"/>
      <point x="287" y="727" type="line"/>
      <point x="25" y="655" type="line"/>
    </contour>
  </outline>
</glyph>
<glyph name="brevecomb.case" format="2">
  <advance width="387"/>
  <anchor x="193" y="513" name="_top"/>
  <outline>
    <contour>
      <point x="194" y="534" type="curve" smooth="yes"/>
      <point x="272" y="534"/>
      <point x="333" y="591"/>
      <point x="333" y="663" type="curve" smooth="yes"/>
      <point x="333" y="675" type="line"/>
      <point x="219" y="675" type="line"/>
      <point x="219" y="667" type="line" smooth="yes"/>
      <point x="219" y="653"/>
      <point x="208" y="641"/>
      <point x="194" y="641" type="curve" smooth="yes"/>
      <point x="179" y="641"/>
      <point x="168" y="653"/>
      <point x="168" y="667" type="curve" smooth="yes"/>
      <point x="168" y="675" type="line"/>
      <point x="54" y="675" type="line"/>
      <point x="54" y="663" type="line" smooth="yes"/>
      <point x="54" y="591"/>
      <point x="115" y="534"/>
    </contour>
  </outline>
</glyph>
<glyph name="caroncomb.alt" format="2">
  <advance width="195"/>
  <anchor x="0" y="800" name="_topright"/>
  <outline>
    <contour>
      <point x="20" y="632" type="line"/>
      <point x="106" y="623" type="line"/>
      <point x="175" y="821" type="line"/>
      <point x="52" y="838" type="line"/>
    </contour>
  </outline>
</glyph>
<glyph name="caroncomb.case" format="2">
  <advance width="364"/>
  <anchor x="182" y="513" name="_top"/>
  <anchor x="182" y="742" name="top"/>
  <outline>
    <contour>
      <point x="182" y="543" type="line"/>
      <point x="330" y="586" type="line"/>
      <point x="306" y="689" type="line"/>
      <point x="182" y="664" type="line"/>
      <point x="58" y="689" type="line"/>
      <point x="34" y="586" type="line"/>
    </contour>
  </outline>
</glyph>
<glyph name="circumflexcomb.case" format="2">
  <advance width="364"/>
  <anchor x="162" y="513" name="_top"/>
  <anchor x="162" y="742" name="top"/>
  <outline>
    <contour>
      <point x="38" y="550" type="line"/>
      <point x="162" y="585" type="line"/>
      <point x="286" y="550" type="line"/>
      <point x="310" y="653" type="line"/>
      <point x="162" y="706" type="line"/>
      <point x="14" y="653" type="line"/>
    </contour>
  </outline>
</glyph>
<glyph name="dieresiscomb.case" format="2">
  <advance width="396"/>
  <anchor x="198" y="513" name="_top"/>
  <anchor x="198" y="731" name="top"/>
  <outline>
    <contour>
      <point x="297" y="555" type="curve" smooth="yes"/>
      <point x="337" y="555"/>
      <point x="370" y="587"/>
      <point x="370" y="630" type="curve" smooth="yes"/>
      <point x="370" y="669"/>
      <point x="337" y="701"/>
      <point x="297" y="701" type="curve" smooth="yes"/>
      <point x="254" y="701"/>
      <point x="220" y="669"/>
      <point x="220" y="630" type="curve" smooth="yes"/>
      <point x="220" y="587"/>
      <point x="254" y="555"/>
    </contour>
    <contour>
      <point x="103" y="555" type="curve" smooth="yes"/>
      <point x="142" y="555"/>
      <point x="176" y="587"/>
      <point x="176" y="630" type="curve" smooth="yes"/>
      <point x="176" y="669"/>
      <point x="142" y="701"/>
      <point x="103" y="701" type="curve" smooth="yes"/>
      <point x="59" y="701"/>
      <point x="26" y="669"/>
      <point x="26" y="630" type="curve" smooth="yes"/>
      <point x="26" y="587"/>
      <point x="59" y="555"/>
    </contour>
  </outline>
</glyph>
<glyph name="dieresiscomb.narrow" format="2">
  <advance width="336"/>
  <anchor x="168" y="513" name="_top"/>
  <anchor x="168" y="731" name="top"/>
  <outline>
    <contour>
      <point x="260" y="569" type="curve" smooth="yes"/>
      <point x="300" y="569"/>
      <point x="335" y="603"/>
      <point x="335" y="647" type="curve" smooth="yes"/>
      <point x="335" y="688"/>
      <point x="300" y="721"/>
      <point x="260" y="721" type="curve" smooth="yes"/>
      <point x="214" y="721"/>
      <point x="180" y="688"/>
      <point x="180" y="647" type="curve" smooth="yes"/>
      <point x="180" y="603"/>
      <point x="214" y="569"/>
    </contour>
    <contour>
      <point x="81" y="569" type="curve" smooth="yes"/>
      <point x="122" y="569"/>
      <point x="156" y="603"/>
      <point x="156" y="647" type="curve" smooth="yes"/>
      <point x="156" y="688"/>
      <point x="122" y="721"/>
      <point x="81" y="721" type="curve" smooth="yes"/>
      <point x="36" y="721"/>
      <point x="1" y="688"/>
      <point x="1" y="647" type="curve" smooth="yes"/>
      <point x="1" y="603"/>
      <point x="36" y="569"/>
    </contour>
  </outline>
</glyph>
<glyph name="fi.liga" format="2">
  <advance width="644"/>
  <anchor x="323" y="0" name="caret_1"/>
  <outline>
    <contour>
      <point x="452" y="0" type="line"/>
      <point x="612" y="0" type="line"/>
      <point x="612" y="513" type="line"/>
      <point x="30" y="513" type="line"/>
      <point x="30" y="353" type="line"/>
      <point x="452" y="353" type="line"/>
    </contour>
    <contour>
      <point x="121" y="-1" type="line"/>
      <point x="281" y="0" type="line"/>
      <point x="281" y="510" type="line" smooth="yes"/>
      <point x="281" y="549"/>
      <point x="312" y="580"/>
      <point x="351" y="580" type="curve" smooth="yes"/>
      <point x="390" y="580" type="line"/>
      <point x="390" y="740" type="line"/>
      <point x="351" y="740" type="line" smooth="yes"/>
      <point x="226" y="740"/>
      <point x="121" y="641"/>
      <point x="121" y="517" type="curve" smooth="yes"/>
    </contour>
    <contour>
      <point x="535" y="574" type="curve" smooth="yes"/>
      <point x="588" y="574"/>
      <point x="629" y="615"/>
      <point x="629" y="669" type="curve" smooth="yes"/>
      <point x="629" y="719"/>
      <point x="588" y="762"/>
      <point x="535" y="762" type="curve" smooth="yes"/>
      <point x="485" y="762"/>
      <point x="441" y="719"/>
      <point x="441" y="669" type="curve" smooth="yes"/>
      <point x="441" y="615"/>
      <point x="485" y="574"/>
    </contour>
  </outline>
</glyph>
<glyph name="five.ss01" format="2">
  <advance width="533"/>
  <outline>
    <contour>
      <point x="278" y="-10" type="curve" smooth="yes"/>
      <point x="411" y="-10"/>
      <point x="513" y="92"/>
      <point x="513" y="226" type="curve" smooth="yes"/>
      <point x="513" y="360"/>
      <point x="411" y="463"/>
      <point x="278" y="463" type="curve" smooth="yes"/>
      <point x="214" y="463" type="line"/>
      <point x="214" y="541" type="line"/>
      <point x="483" y="541" type="line"/>
      <point x="483" y="707" type="line"/>
      <point x="54" y="707" type="line"/>
      <point x="54" y="295" type="line"/>
      <point x="278" y="295" type="line" smooth="yes"/>
      <point x="317" y="295"/>
      <point x="347" y="266"/>
      <point x="347" y="226" type="curve" smooth="yes"/>
      <point x="347" y="185"/>
      <point x="317" y="157"/>
      <point x="278" y="157" type="curve" smooth="yes"/>
      <point x="238" y="157"/>
      <point x="207" y="185"/>
      <point x="207" y="226" type="curve" smooth="yes"/>
      <point x="207" y="229" type="line"/>
      <point x="40" y="229" type="line"/>
      <point x="40" y="226" type="line" smooth="yes"/>
      <point x="40" y="92"/>
      <point x="142" y="-10"/>
    </contour>
  </outline>
</glyph>
<glyph name="four.ss01" format="2">
  <advance width="497"/>
  <outline>
    <contour>
      <point x="297" y="0" type="line"/>
      <point x="457" y="0" type="line"/>
      <point x="457" y="513" type="line"/>
      <point x="299" y="513" type="line"/>
      <point x="299" y="276" type="line"/>
      <point x="200" y="276" type="line"/>
      <point x="200" y="706" type="line"/>
      <point x="40" y="706" type="line"/>
      <point x="40" y="116" type="line"/>
      <point x="297" y="116" type="line"/>
    </contour>
  </outline>
</glyph>
<glyph name="m.ss02" format="2">
  <advance width="856"/>
  <anchor x="299" y="0" name="bottom"/>
  <outline>
    <contour>
      <point x="348" y="0" type="line"/>
      <point x="508" y="0" type="line"/>
      <point x="508" y="279" type="line" smooth="yes"/>
      <point x="508" y="321"/>
      <point x="540" y="353"/>
      <point x="582" y="353" type="curve" smooth="yes"/>
      <point x="623" y="353"/>
      <point x="656" y="320"/>
      <point x="656" y="279" type="curve" smooth="yes"/>
      <point x="656" y="0" type="line"/>
      <point x="816" y="0" type="line"/>
      <point x="816" y="279" type="line" smooth="yes"/>
      <point x="816" y="409"/>
      <point x="712" y="513"/>
      <point x="582" y="513" type="curve" smooth="yes"/>
      <point x="452" y="513"/>
      <point x="348" y="409"/>
      <point x="348" y="279" type="curve" smooth="yes"/>
    </contour>
    <contour>
      <point x="40" y="0" type="line"/>
      <point x="200" y="0" type="line"/>
      <point x="200" y="391" type="line"/>
      <point x="140" y="391" type="line"/>
      <point x="140" y="513" type="line"/>
      <point x="40" y="513" type="line"/>
    </contour>
    <contour>
      <point x="40" y="0" type="line"/>
      <point x="200" y="0" type="line"/>
      <point x="200" y="279" type="line" smooth="yes"/>
      <point x="200" y="321"/>
      <point x="232" y="353"/>
      <point x="274" y="353" type="curve" smooth="yes"/>
      <point x="315" y="353"/>
      <point x="348" y="320"/>
      <point x="348" y="279" type="curve" smooth="yes"/>
      <point x="348" y="0" type="line"/>
      <point x="508" y="0" type="line"/>
      <point x="508" y="279" type="line" smooth="yes"/>
      <point x="508" y="409"/>
      <point x="404" y="513"/>
      <point x="274" y="513" type="curve" smooth="yes"/>
      <point x="144" y="513"/>
      <point x="40" y="409"/>
      <point x="40" y="279" type="curve" smooth="yes"/>
    </contour>
  </outline>
</glyph>
<glyph name="macroncomb.case" format="2">
  <advance width="328"/>
  <anchor x="164" y="513" name="_top"/>
  <anchor x="164" y="698" name="top"/>
  <outline>
    <contour>
      <point x="40" y="581" type="line"/>
      <point x="288" y="581" type="line"/>
      <point x="288" y="684" type="line"/>
      <point x="40" y="684" type="line"/>
    </contour>
  </outline>
</glyph>
<glyph name="macroncomb.narrow" format="2">
  <advance width="278"/>
  <anchor x="139" y="513" name="_top"/>
  <anchor x="139" y="698" name="top"/>
  <outline>
    <contour>
      <point x="20" y="605" type="line"/>
      <point x="258" y="605" type="line"/>
      <point x="258" y="698" type="line"/>
      <point x="20" y="698" type="line"/>
    </contour>
  </outline>
</glyph>
<glyph name="n.ss02" format="2">
  <advance width="548"/>
  <anchor x="274" y="0" name="bottom"/>
  <anchor x="275" y="513" name="top"/>
  <outline>
    <contour>
      <point x="40" y="0" type="line"/>
      <point x="200" y="0" type="line"/>
      <point x="200" y="289" type="line" smooth="yes"/>
      <point x="200" y="331"/>
      <point x="232" y="363"/>
      <point x="274" y="363" type="curve" smooth="yes"/>
      <point x="315" y="363"/>
      <point x="348" y="330"/>
      <point x="348" y="289" type="curve" smooth="yes"/>
      <point x="348" y="0" type="line"/>
      <point x="508" y="0" type="line"/>
      <point x="508" y="289" type="line" smooth="yes"/>
      <point x="508" y="419"/>
      <point x="404" y="523"/>
      <point x="274" y="523" type="curve" smooth="yes"/>
      <point x="144" y="523"/>
      <point x="40" y="419"/>
      <point x="40" y="289" type="curve" smooth="yes"/>
    </contour>
    <contour>
      <point x="40" y="0" type="line"/>
      <point x="200" y="0" type="line"/>
      <point x="200" y="391" type="line"/>
      <point x="140" y="391" type="line"/>
      <point x="140" y="513" type="line"/>
      <point x="40" y="513" type="line"/>
    </contour>
  </outline>
</glyph>
<glyph name="one.ss01" format="2">
  <advance width="530"/>
  <outline>
    <contour>
      <point x="192" y="0" type="line"/>
      <point x="352" y="0" type="line"/>
      <point x="352" y="726" type="line"/>
      <point x="344" y="726" type="line"/>
      <point x="62" y="602" type="line"/>
      <point x="62" y="449" type="line"/>
      <point x="192" y="497" type="line"/>
    </contour>
    <contour>
      <point x="60" y="0" type="line"/>
      <point x="470" y="0" type="line"/>
      <point x="470" y="160" type="line"/>
      <point x="60" y="160" type="line"/>
    </contour>
  </outline>
</glyph>
<glyph name="seven.ss01" format="2">
  <advance width="425"/>
  <outline>
    <contour>
      <point x="58" y="0" type="line"/>
      <point x="225" y="0" type="line"/>
      <point x="415" y="706" type="line"/>
      <point x="10" y="706" type="line"/>
      <point x="10" y="546" type="line"/>
      <point x="208" y="546" type="line"/>
    </contour>
  </outline>
</glyph>
<glyph name="six.ss01" format="2">
  <advance width="533"/>
  <outline>
    <contour>
      <point x="267" y="-10" type="curve" smooth="yes"/>
      <point x="397" y="-10"/>
      <point x="503" y="96"/>
      <point x="503" y="227" type="curve" smooth="yes"/>
      <point x="503" y="353"/>
      <point x="399" y="432"/>
      <point x="289" y="432" type="curve" smooth="yes"/>
      <point x="256" y="432"/>
      <point x="222" y="425"/>
      <point x="190" y="410" type="curve"/>
      <point x="190" y="479" type="line" smooth="yes"/>
      <point x="190" y="522"/>
      <point x="224" y="556"/>
      <point x="267" y="556" type="curve" smooth="yes"/>
      <point x="309" y="556"/>
      <point x="343" y="532"/>
      <point x="343" y="489" type="curve" smooth="yes"/>
      <point x="343" y="486" type="line"/>
      <point x="503" y="486" type="line"/>
      <point x="503" y="489" type="line" smooth="yes"/>
      <point x="503" y="620"/>
      <point x="397" y="716"/>
      <point x="267" y="716" type="curve" smooth="yes"/>
      <point x="136" y="716"/>
      <point x="30" y="610"/>
      <point x="30" y="479" type="curve" smooth="yes"/>
      <point x="30" y="227" type="line" smooth="yes"/>
      <point x="30" y="96"/>
      <point x="136" y="-10"/>
    </contour>
    <contour>
      <point x="267" y="150" type="curve" smooth="yes"/>
      <point x="224" y="150"/>
      <point x="190" y="184"/>
      <point x="190" y="227" type="curve" smooth="yes"/>
      <point x="190" y="269"/>
      <point x="224" y="303"/>
      <point x="267" y="303" type="curve" smooth="yes"/>
      <point x="309" y="303"/>
      <point x="343" y="269"/>
      <point x="343" y="227" type="curve" smooth="yes"/>
      <point x="343" y="184"/>
      <point x="309" y="150"/>
    </contour>
  </outline>
</glyph>
<glyph name="tildecomb.case" format="2">
  <advance width="469"/>
  <anchor x="235" y="513" name="_top"/>
  <anchor x="235" y="728" name="top"/>
  <outline>
    <contour>
      <point x="134" y="560" type="line"/>
      <point x="150" y="588" type="line" smooth="yes"/>
      <point x="159" y="601"/>
      <point x="167" y="605"/>
      <point x="174" y="605" type="curve" smooth="yes"/>
      <point x="180" y="605"/>
      <point x="185" y="603"/>
      <point x="189" y="600" type="curve" smooth="yes"/>
      <point x="221" y="581" type="line" smooth="yes"/>
      <point x="243" y="568"/>
      <point x="266" y="561"/>
      <point x="289" y="561" type="curve" smooth="yes"/>
      <point x="326" y="561"/>
      <point x="365" y="582"/>
      <point x="398" y="632" type="curve" smooth="yes"/>
      <point x="418" y="665" type="line"/>
      <point x="325" y="716" type="line"/>
      <point x="309" y="689" type="line" smooth="yes"/>
      <point x="300" y="675"/>
      <point x="292" y="672"/>
      <point x="285" y="672" type="curve" smooth="yes"/>
      <point x="279" y="672"/>
      <point x="274" y="673"/>
      <point x="271" y="676" type="curve"/>
      <point x="238" y="695" type="line" smooth="yes"/>
      <point x="216" y="709"/>
      <point x="193" y="716"/>
      <point x="170" y="716" type="curve" smooth="yes"/>
      <point x="132" y="716"/>
      <point x="95" y="694"/>
      <point x="62" y="644" type="curve" smooth="yes"/>
      <point x="41" y="611" type="line"/>
    </contour>
  </outline>
</glyph>
<glyph name="zero.ss01" format="2">
  <advance width="574"/>
  <anchor x="287" y="706" name="top"/>
  <outline>
    <contour>
      <point x="287" y="-10" type="curve" smooth="yes"/>
      <point x="433" y="-10"/>
      <point x="544" y="101"/>
      <point x="544" y="247" type="curve" smooth="yes"/>
      <point x="544" y="460" type="line" smooth="yes"/>
      <point x="544" y="606"/>
      <point x="433" y="716"/>
      <point x="287" y="716" type="curve" smooth="yes"/>
      <point x="141" y="716"/>
      <point x="30" y="606"/>
      <point x="30" y="460" type="curve" smooth="yes"/>
      <point x="30" y="247" type="line" smooth="yes"/>
      <point x="30" y="101"/>
      <point x="141" y="-10"/>
    </contour>
    <contour>
      <point x="287" y="150" type="curve" smooth="yes"/>
      <point x="232" y="150"/>
      <point x="190" y="192"/>
      <point x="190" y="247" type="curve" smooth="yes"/>
      <point x="190" y="459" type="line" smooth="yes"/>
      <point x="190" y="514"/>
      <point x="232" y="556"/>
      <point x="287" y="556" type="curve" smooth="yes"/>
      <point x="342" y="556"/>
      <point x="384" y="514"/>
      <point x="384" y="459" type="curve" smooth="yes"/>
      <point x="384" y="247" type="line" smooth="yes"/>
      <point x="384" y="192"/>
      <point x="342" y="150"/>
    </contour>
  </outline>
</glyph>
